<svg width="38" height="38" viewBox="0 0 38 38" fill="none" xmlns="http://www.w3.org/2000/svg">
<path d="M38 19C38 8.6058 29.3756 -1.28405e-06 19 -8.30516e-07C8.6059 -3.76176e-07 -1.28405e-06 8.6244 -8.29703e-07 19.0186C-3.76176e-07 29.3941 8.6059 38 19 38C29.3756 38 38 29.3755 38 19Z" fill="#FF941D"/>
<path d="M18.9814 28.8539C18.553 28.8539 18.255 28.7049 17.8638 28.3137L11.3441 21.8313C11.0834 21.5706 10.953 21.2352 10.953 20.8254C10.953 20.0245 11.549 19.4284 12.35 19.4284C12.7598 19.4284 13.1138 19.6147 13.3932 19.8568L15.7589 22.2411L17.6961 24.5509L17.5284 20.4902L17.5284 10.5244C17.5284 9.68622 18.1245 9.07154 18.9814 9.07154C19.8197 9.07154 20.4158 9.66762 20.4158 10.5244L20.4158 20.4902L20.2667 24.5696L22.204 22.2411L24.5696 19.8568C24.8305 19.5961 25.1844 19.4284 25.5942 19.4284C26.3952 19.4284 27.0099 20.0245 27.0099 20.8254C27.0099 21.2352 26.8608 21.5706 26.6001 21.8313L20.099 28.3137C19.7452 28.6676 19.4098 28.8539 18.9814 28.8539Z" fill="white"/>
</svg>
