<svg width="79" height="96" viewBox="0 0 79 96" fill="none" xmlns="http://www.w3.org/2000/svg">
<path d="M74.4423 44.1905V42.6667C74.4312 34.6863 71.7093 26.948 66.7253 20.7274C61.7414 14.5067 54.793 10.1751 47.0255 8.44661C47.0642 8.17227 47.0878 7.896 47.0962 7.61905C47.0962 5.59835 46.2958 3.66042 44.8713 2.23157C43.4467 0.802719 41.5146 0 39.5 0C37.4854 0 35.5533 0.802719 34.1287 2.23157C32.7042 3.66042 31.9038 5.59835 31.9038 7.61905C31.9122 7.896 31.9358 8.17227 31.9745 8.44661C24.207 10.1751 17.2586 14.5067 12.2746 20.7274C7.29072 26.948 4.56883 34.6863 4.55769 42.6667V44.1905C3.34932 44.1918 2.19082 44.6739 1.33637 45.5309C0.481927 46.3879 0.00131899 47.5499 0 48.7619V50.2857C0.00131899 51.4977 0.481927 52.6597 1.33637 53.5167C2.19082 54.3738 3.34932 54.8558 4.55769 54.8571H14.0179C14.0149 55.0597 14.0316 55.262 14.0677 55.4613L16.5261 67.7909C14.8966 68.8186 13.5205 70.2032 12.501 71.8408C11.2821 73.8215 10.6359 76.1031 10.6346 78.4308V78.8773L8.82217 82.5016L7.89444 82.3155C7.67402 82.2713 7.44656 82.2766 7.22845 82.3312C7.01035 82.3857 6.80703 82.4882 6.63317 82.6311C6.45931 82.774 6.31923 82.9538 6.22304 83.1576C6.12685 83.3614 6.07694 83.5841 6.07692 83.8095V94.4762C6.07692 94.8803 6.23698 95.2679 6.5219 95.5537C6.80681 95.8395 7.19323 96 7.59615 96H37.9808C38.3837 96 38.7701 95.8395 39.055 95.5537C39.3399 95.2679 39.5 94.8803 39.5 94.4762V89.9048C39.4975 89.7005 39.4535 89.4988 39.3707 89.3122C39.2879 89.1255 39.168 88.9577 39.0184 88.8191L52.5477 78.9464C52.6952 78.8206 52.8276 78.678 52.9423 78.5216L67.6882 54.8571H74.4423C75.6507 54.8558 76.8092 54.3738 77.6636 53.5167C78.5181 52.6597 78.9987 51.4977 79 50.2857V48.7619C78.9987 47.5499 78.5181 46.3879 77.6636 45.5309C76.8092 44.6739 75.6507 44.1918 74.4423 44.1905ZM34.9423 7.61905C34.9423 6.40663 35.4225 5.24387 36.2772 4.38656C37.132 3.52925 38.2912 3.04762 39.5 3.04762C40.7088 3.04762 41.868 3.52925 42.7228 4.38656C43.5775 5.24387 44.0577 6.40663 44.0577 7.61905C44.0577 7.72322 44.0388 7.82171 44.0321 7.92364C41.0243 7.51752 37.9757 7.51752 34.9679 7.92364C34.9612 7.82171 34.9423 7.72322 34.9423 7.61905ZM7.59615 42.6667C7.59615 42.1524 7.6491 41.6513 7.67312 41.1429H56.2115C56.6145 41.1429 57.0009 40.9823 57.2858 40.6965C57.5707 40.4108 57.7308 40.0232 57.7308 39.619C57.7308 39.2149 57.5707 38.8273 57.2858 38.5415C57.0009 38.2558 56.6145 38.0952 56.2115 38.0952H7.96019C9.04675 30.4818 12.8343 23.5168 18.6278 18.4784C24.4213 13.44 31.8321 10.6663 39.5 10.6663C47.1679 10.6663 54.5787 13.44 60.3722 18.4784C66.1657 23.5168 69.9532 30.4818 71.0398 38.0952H62.2885C61.8855 38.0952 61.4991 38.2558 61.2142 38.5415C60.9293 38.8273 60.7692 39.2149 60.7692 39.619C60.7692 40.0232 60.9293 40.4108 61.2142 40.6965C61.4991 40.9823 61.8855 41.1429 62.2885 41.1429H71.3269C71.3509 41.6513 71.4038 42.1524 71.4038 42.6667V44.1905H7.59615V42.6667ZM13.512 79.9211C13.618 79.7091 13.6732 79.4753 13.6731 79.2381V78.4308C13.6742 76.6707 14.1624 74.9455 15.0833 73.4472C16.0192 71.9467 17.3455 70.7307 18.9192 69.9301C19.2148 69.7793 19.4531 69.5357 19.5977 69.2363C19.7424 68.937 19.7854 68.5985 19.7203 68.2723L17.0461 54.8571H19.5979C21.0025 54.8576 22.3634 55.3462 23.4491 56.24C24.5348 57.1337 25.2781 58.3773 25.5525 59.7589L27.1503 67.7396C27.3798 68.8357 27.9943 69.8127 28.8817 70.4926L33.2146 73.744C34.0049 74.3439 34.9691 74.6679 35.9601 74.6667H40.457C41.3763 74.6658 42.2737 74.3857 43.0312 73.8634C43.7888 73.341 44.3708 72.6009 44.7009 71.7403L50.1859 57.4442C50.4788 56.6852 50.993 56.0324 51.6614 55.571C52.3298 55.1095 53.1213 54.8607 53.9327 54.8571H55.7848L50.3135 76.8085L35.2469 87.8025L11.9118 83.1213L13.512 79.9211ZM26.3728 54.8571H48.1633C47.8321 55.3198 47.5589 55.8216 47.3498 56.3512L41.8612 70.6555C41.7518 70.9398 41.559 71.1841 41.3083 71.3561C41.0576 71.5281 40.7607 71.6198 40.4569 71.619H35.96C35.6304 71.6221 35.3092 71.5144 35.0476 71.3132L30.7184 68.0647C30.4166 67.8332 30.207 67.5013 30.1272 67.1287L28.533 59.1652C28.2147 57.5596 27.4682 56.0707 26.3728 54.8571ZM36.4615 92.9524H9.11538V85.6682L36.4615 91.154V92.9524ZM55.4585 68.7333L58.9171 54.8571H64.1051L55.4585 68.7333ZM75.9615 50.2857C75.961 50.6897 75.8008 51.077 75.516 51.3626C75.2312 51.6483 74.8451 51.809 74.4423 51.8095H4.55769C4.15493 51.809 3.76881 51.6483 3.48401 51.3626C3.19921 51.077 3.03898 50.6897 3.03846 50.2857V48.7619C3.03898 48.3579 3.19921 47.9706 3.48401 47.685C3.76881 47.3993 4.15493 47.2386 4.55769 47.2381H74.4423C74.8451 47.2386 75.2312 47.3993 75.516 47.685C75.8008 47.9706 75.961 48.3579 75.9615 48.7619V50.2857Z" fill="black"/>
</svg>
