<svg width="116" height="116" viewBox="0 0 116 116" fill="none" xmlns="http://www.w3.org/2000/svg">
<path d="M29.5722 10.077C25.9529 10.1926 26.1326 9.92296 26.0299 15.4182C25.9786 17.6779 25.9401 23.6611 25.9273 28.7326L25.9144 37.9256L25.2727 38.0797C21.3583 39.017 18.1626 46.2712 16.0449 59.0721C14.877 66.0952 14.1583 73.0927 14.0171 78.6778L13.9401 81.9904H12.9647C11.6684 81.9904 11.2064 82.1444 10.5519 82.7864L10 83.3257V104.793L11.2321 106H104.794L106 104.767V83.3257L105.461 82.7992C104.755 82.1188 104.409 81.9904 103.228 81.9904C102.406 81.9904 102.278 81.9647 102.278 81.7593C102.278 81.0274 101.867 74.2097 101.701 72.1682C100.571 58.0193 97.9144 46.5023 94.5904 41.3152C93.4738 39.5948 91.8438 38.2595 90.5091 38.0027L90.0856 37.9256V27.6285C90.0727 16.8691 89.9572 11.7333 89.7005 11.0143C89.4182 10.2439 89.1102 10.1669 85.5936 10.077C81.8717 9.97432 32.9219 9.97432 29.5722 10.077ZM85.9786 37.9513H30.0214V13.8133H85.9786V37.9513ZM90.8171 42.4708C91.1123 42.7789 91.5487 43.3952 91.8054 43.8574C93.9872 47.889 96.4128 58.4044 97.4524 68.3806C97.8118 71.8216 98.2866 79.1272 98.2995 81.3099V81.9904H17.7904L17.8674 79.5124C18.1497 70.9485 19.2535 61.7812 20.8578 54.5398C22.154 48.7236 23.5658 44.692 25.016 42.6634L25.5422 41.9315H90.2909L90.8171 42.4708ZM102.021 102.02H14.0171L13.9144 95.9339C13.8631 92.5957 13.8631 89.0135 13.9144 87.9864L14.0043 86.1118L14.9925 86.0604C15.5316 86.0476 35.3348 86.0091 59.0011 85.9962L102.021 85.9706V102.02Z" fill="black"/>
<path d="M36.4385 18.1787C35.6941 18.2172 34.9882 18.3071 34.8727 18.3584C34.1283 18.6923 34 19.989 34 27.2946V32.6358L35.3604 33.9711H80.6652L82 32.6101L81.9872 27.2946C81.9872 19.5653 81.8845 18.6666 80.9476 18.2942C80.6011 18.153 76.6353 18.1145 59.1551 18.1016C47.3989 18.0888 37.1829 18.1273 36.4385 18.1787ZM78.1497 23.1475C78.1497 23.8408 78.1112 25.664 78.0599 27.1919L77.9829 29.9909H38.0171L37.9401 27.1919C37.8888 25.664 37.8503 23.8408 37.8503 23.1475V21.9021H78.1497V23.1475Z" fill="black"/>
<path d="M31.4203 50.1102C31.2406 50.1359 30.8941 50.367 30.6503 50.6109L30.2139 51.0603V53.9363C30.2139 57.9551 30.0856 57.8395 34.4492 57.9422C35.938 57.9807 37.9273 57.9551 38.8898 57.878C41.8289 57.6598 41.893 57.5699 41.893 53.8465C41.893 50.9961 41.8545 50.842 40.8535 50.3413C40.3786 50.0974 40.0834 50.0845 36.0535 50.0717C33.692 50.0588 31.6 50.0717 31.4203 50.1102Z" fill="black"/>
<path d="M47.5401 50.1359C46.8984 50.29 46.6289 50.4954 46.3722 51.009C46.1668 51.4327 46.1283 51.8692 46.0898 54.1161L46.0385 56.7225L47.2706 57.9807H56.6652L58 56.6198V54.7709C58 53.7437 57.9358 52.4983 57.8717 52.0104C57.6021 50.1102 57.3455 50.0332 51.9679 50.0332C49.7476 50.046 47.7583 50.0845 47.5401 50.1359Z" fill="black"/>
<path d="M63.5059 50.1359C62.8513 50.3413 62.5947 50.5724 62.3251 51.1502C62.0813 51.6894 62.0428 51.9847 62.0428 53.9363C62.0428 55.7595 62.0813 56.2217 62.2738 56.7353C62.6075 57.5699 62.954 57.7239 64.8535 57.878C66.7273 58.0321 71.8481 57.9294 72.5668 57.7239C73.7348 57.3773 73.9144 56.8252 73.9144 53.5383V51.2914L73.3754 50.6495L72.8235 50.0203L68.3315 50.0332C65.8674 50.0332 63.6856 50.0845 63.5059 50.1359Z" fill="black"/>
<path d="M79.0866 50.2771C78.1626 50.842 78.2139 50.2514 78.2139 59.9066C78.2139 69.4078 78.2011 69.2152 78.9711 69.6389C79.5615 69.9599 83.6043 70.0369 84.6182 69.7416C85.8759 69.3693 85.7733 70.1268 85.8503 60.035L85.9144 51.2401L85.3497 50.6238L84.785 50.0203H82.1412C79.7412 50.0203 79.4588 50.046 79.0866 50.2771Z" fill="black"/>
<path d="M32.4599 62.0765C31.1508 62.1535 30.8171 62.2948 30.3936 62.9496C30.1754 63.2706 30.1497 63.5915 30.1497 65.9155C30.1497 68.9327 30.2267 69.2794 31.0096 69.6389C31.446 69.8315 32.0235 69.8572 35.9893 69.8572C39.9551 69.8572 40.5326 69.8315 40.969 69.6389C41.7904 69.2665 41.893 68.8557 41.893 65.9412C41.893 62.5387 41.7647 62.3076 39.6856 62.0893C38.492 61.9609 34.5134 61.9609 32.4599 62.0765Z" fill="black"/>
<path d="M48.2332 62.0765C47.1294 62.1792 46.693 62.3975 46.3594 63.0266C46.1797 63.3733 46.1283 63.874 46.0898 66.0567L46.0385 68.6631L47.2706 69.9214H56.7936L57.4096 69.2922L58.0385 68.6631L57.9743 66.1723C57.8973 62.68 57.692 62.3204 55.6898 62.0893C54.5091 61.9481 49.8118 61.9481 48.2332 62.0765Z" fill="black"/>
<path d="M64.0706 62.0637C63.1465 62.1664 62.6717 62.4745 62.2995 63.1935C62.0685 63.6429 62.0428 63.9511 62.0428 65.9412C62.0428 68.3421 62.1455 68.907 62.6717 69.3949C63.1465 69.8443 64.2888 69.947 68.5497 69.8957C74.0813 69.8443 73.8246 70.0241 73.8888 65.9155L73.9273 63.2449L73.3754 62.68L72.8235 62.1022L68.8449 62.038C66.6631 62.0123 64.507 62.0251 64.0706 62.0637Z" fill="black"/>
</svg>
