<svg width="34" height="39" viewBox="0 0 34 39" fill="none" xmlns="http://www.w3.org/2000/svg">
<path d="M11.7355 33.2682C12.3992 33.2682 12.8358 32.8491 12.8183 32.2378L12.2769 13.5518C12.2595 12.9405 11.8229 12.5389 11.1942 12.5389C10.5306 12.5389 10.094 12.958 10.1114 13.5692L10.6353 32.2378C10.6528 32.8665 11.0894 33.2682 11.7355 33.2682ZM16.9049 33.2682C17.5684 33.2682 18.04 32.8491 18.04 32.2378V13.5692C18.04 12.958 17.5684 12.5389 16.9049 12.5389C16.2411 12.5389 15.7872 12.958 15.7872 13.5692V32.2378C15.7872 32.8491 16.2411 33.2682 16.9049 33.2682ZM22.0914 33.2682C22.7202 33.2682 23.1568 32.8665 23.1742 32.2378L23.6981 13.5692C23.7156 12.958 23.279 12.5389 22.6154 12.5389C21.9867 12.5389 21.55 12.9405 21.5326 13.5692L21.0088 32.2378C20.9912 32.8491 21.4278 33.2682 22.0914 33.2682ZM9.23825 7.98087H12.015V4.24366C12.015 3.24824 12.7135 2.60207 13.7613 2.60207H20.0133C21.0611 2.60207 21.7597 3.24824 21.7597 4.24366V7.98087H24.5363V4.06902C24.5363 1.5368 22.8948 0 20.2054 0H13.5692C10.8798 0 9.23825 1.5368 9.23825 4.06902V7.98087ZM1.30977 9.37796H32.5172C33.2333 9.37796 33.8096 8.76673 33.8096 8.05072C33.8096 7.33473 33.2333 6.74096 32.5172 6.74096H1.30977C0.611226 6.74096 0 7.33473 0 8.05072C0 8.7842 0.611226 9.37796 1.30977 9.37796ZM8.90644 38.8915H24.9206C27.4178 38.8915 29.0943 37.2673 29.2167 34.77L30.4391 9.04615H27.6275L26.4574 34.4732C26.4225 35.5209 25.6716 36.2544 24.6412 36.2544H9.15093C8.15551 36.2544 7.40457 35.5035 7.35218 34.4732L6.11226 9.04615H3.37048L4.61039 34.7876C4.73264 37.2848 6.37421 38.8915 8.90644 38.8915Z" fill="#FF1300"/>
</svg>
