<svg width="38" height="38" viewBox="0 0 38 38" fill="none" xmlns="http://www.w3.org/2000/svg">
<path d="M37.6832 8.09714C37.5169 7.42695 36.6782 7.19984 36.1899 7.68819L30.671 13.2071L25.633 12.3677L24.7936 7.32972L30.3125 1.81082C30.8039 1.3195 30.5671 0.482311 29.8924 0.314577C26.376 -0.556749 22.504 0.382116 19.7557 3.12969C16.8137 6.07171 16.0039 10.3363 17.2285 14.0547L1.39104 29.8922C-0.46368 31.7469 -0.46368 34.7542 1.39104 36.609C3.24576 38.4637 6.2531 38.4637 8.10782 36.609L23.932 20.7848C27.6518 22.025 31.9082 21.2064 34.8695 18.245C37.6208 15.4938 38.5582 11.6158 37.6832 8.09714ZM4.75017 35.0311C3.76678 35.0311 2.96893 34.2332 2.96893 33.2498C2.96893 32.2657 3.76678 31.4686 4.75017 31.4686C5.73357 31.4686 6.53142 32.2657 6.53142 33.2498C6.53142 34.2332 5.73357 35.0311 4.75017 35.0311Z" fill="#B7B7B7"/>
</svg>
