<?xml version="1.0" standalone="no"?>
<!DOCTYPE svg PUBLIC "-//W3C//DTD SVG 20010904//EN"
 "http://www.w3.org/TR/2001/REC-SVG-20010904/DTD/svg10.dtd">
<svg version="1.0" xmlns="http://www.w3.org/2000/svg"
 width="512.000000pt" height="512.000000pt" viewBox="0 0 512.000000 512.000000"
 preserveAspectRatio="xMidYMid meet">

<g transform="translate(0.000000,512.000000) scale(0.100000,-0.100000)"
fill="#000000" stroke="none">
<path d="M1411 4734 c-51 -64 -133 -334 -150 -489 -27 -250 31 -449 174 -592
50 -51 92 -82 136 -103 63 -29 167 -60 201 -60 17 0 18 -18 18 -290 l0 -290
-693 0 -694 0 -21 -23 c-12 -13 -22 -29 -22 -35 0 -7 29 -79 65 -160 84 -191
153 -275 279 -339 103 -52 128 -55 489 -60 185 -3 337 -6 337 -8 0 -3 -266
-270 -303 -304 l-26 -23 -27 21 c-49 38 -64 30 -187 -101 -333 -357 -619 -676
-624 -697 -5 -19 0 -30 21 -48 15 -13 35 -23 44 -23 20 0 103 86 442 458 140
155 257 281 260 281 5 1 199 -169 454 -396 l38 -35 -24 -26 c-139 -153 -278
-312 -292 -334 -11 -16 -15 -35 -11 -48 9 -28 49 -53 74 -45 18 5 373 394 394
430 11 20 2 58 -19 80 -19 19 -31 2 134 192 l124 141 331 4 c329 4 333 5 457
35 69 17 190 45 270 62 584 130 631 141 677 167 52 30 83 90 83 161 l0 50 228
6 c240 6 285 13 378 60 126 64 195 148 279 339 36 81 65 154 65 161 0 7 -10
23 -23 35 l-23 22 -692 0 -692 0 0 290 c0 160 3 290 8 291 137 12 261 68 354
160 55 53 68 72 68 97 0 34 -30 62 -65 62 -11 0 -44 -24 -74 -55 -66 -67 -97
-87 -176 -113 -217 -73 -450 -5 -561 163 -69 104 -105 271 -87 408 l5 37 463
0 c413 0 464 -2 469 -16 3 -9 6 -49 6 -89 0 -77 9 -97 50 -110 24 -8 56 9 71
37 12 22 7 121 -12 248 -11 75 -69 267 -105 348 -44 100 -1 92 -471 92 -252 0
-422 -4 -433 -10 -36 -19 -127 -276 -154 -435 -77 -443 133 -783 507 -824 4
-1 7 -131 7 -291 l0 -290 -645 0 -645 0 0 290 c0 187 4 290 10 290 13 0 10 -1
77 15 326 77 498 402 427 810 -27 159 -118 416 -154 435 -11 6 -181 10 -434
10 l-415 0 -20 -26z m835 -209 c18 -55 34 -111 36 -125 l3 -25 -432 -3 c-347
-2 -433 0 -433 11 0 22 38 151 59 200 l20 47 358 -2 357 -3 32 -100z m1421 13
c18 -51 35 -110 38 -131 l7 -37 -433 2 -434 3 3 25 c4 25 60 208 69 223 2 4
165 7 362 7 l357 0 31 -92z m-1346 -300 c0 -7 2 -41 5 -74 13 -141 -40 -309
-125 -405 -122 -137 -341 -184 -529 -113 -143 54 -233 161 -277 329 -15 58
-21 228 -9 259 5 14 56 16 470 16 364 0 464 -3 465 -12z m2280 -1463 c-1 -6
-13 -40 -28 -77 -50 -128 -154 -227 -277 -263 -42 -13 -167 -15 -780 -15
l-730 0 26 28 c38 41 50 70 50 122 0 80 -47 143 -120 156 -39 8 -53 3 -602
-188 l-325 -113 -485 0 -485 0 -66 31 c-113 54 -164 111 -226 251 l-32 73
2032 2 c2371 3 2049 5 2048 -7z m-1860 -191 c11 -14 10 -19 -13 -39 -14 -12
-74 -48 -132 -79 -134 -72 -156 -99 -117 -147 l19 -24 588 -5 588 -5 16 -27
c13 -25 13 -31 0 -55 -12 -21 -28 -30 -65 -39 -28 -6 -133 -30 -235 -53 -102
-24 -223 -51 -270 -61 -47 -10 -177 -40 -290 -66 l-205 -48 -344 -6 -343 -5
-45 -52 -45 -53 -91 83 c-50 45 -121 110 -157 144 l-65 62 50 52 c71 73 125
105 245 144 91 29 598 202 790 269 80 29 104 30 121 10z m-1136 -710 c83 -75
152 -140 153 -145 5 -12 -118 -151 -129 -147 -4 2 -29 23 -56 48 -26 25 -99
90 -161 145 l-113 99 68 68 c37 37 72 68 78 68 5 0 78 -61 160 -136z"/>
<path d="M1066 1624 c-20 -20 -20 -68 0 -88 36 -37 97 -9 97 44 0 53 -61 81
-97 44z"/>
<path d="M929 1466 c-50 -24 -29 -116 27 -116 32 0 54 26 54 64 0 49 -39 73
-81 52z"/>
<path d="M1039 763 c-144 -150 -289 -325 -289 -348 0 -27 35 -65 60 -65 23 0
33 9 186 180 191 212 193 216 154 258 -32 34 -60 27 -111 -25z"/>
</g>
</svg>
