<svg width="54" height="53" viewBox="0 0 54 53" fill="none" xmlns="http://www.w3.org/2000/svg">
<path d="M7.60663 0.0559769C6.5229 0.196672 5.81942 0.394405 5.0399 0.77086C4.6026 0.980001 4.08545 1.28421 3.91814 1.4249C3.87631 1.46293 3.68618 1.61883 3.49605 1.77854C3.1158 2.09035 2.57964 2.64172 2.32867 2.96874C1.99784 3.40604 1.92179 3.51251 1.92179 3.52772C1.92179 3.53533 1.86095 3.63419 1.7849 3.74827C1.62519 3.98783 1.09663 5.03354 0.974952 5.35676C0.796232 5.82067 0.617511 6.35303 0.549065 6.6116C0.43879 7.03369 0.332318 7.50521 0.29049 7.73336C0.267675 7.84744 0.214439 8.12122 0.172611 8.34177C0.130782 8.56232 0.0965592 8.87413 0.0965592 9.03384C0.0965592 9.20876 0.0813489 9.33044 0.0585335 9.33044C0.0319155 9.33044 0.0205078 10.6613 0.0205078 13.2471V17.1637H13.1394V35.0548C13.1394 49.881 13.147 52.9459 13.1888 52.9459C13.2192 52.9459 13.4284 52.8432 13.6565 52.7139C14.2763 52.3679 14.3334 52.3375 14.3828 52.3375C14.4056 52.3375 14.4322 52.3223 14.4398 52.3071C14.4513 52.2766 14.7973 52.0789 15.1661 51.8926C15.2688 51.8431 15.3715 51.7861 15.3943 51.7633C15.4209 51.7443 15.516 51.6872 15.611 51.6416C15.7061 51.5922 15.9799 51.4439 16.2194 51.3146C16.459 51.1815 16.786 51.0066 16.9419 50.9229C17.0978 50.8393 17.3032 50.7252 17.3982 50.672C17.4933 50.6149 17.6454 50.5313 17.7405 50.4856C17.8355 50.4362 18.0485 50.3221 18.2158 50.227C18.3831 50.132 18.6151 50.0103 18.7291 49.9495C18.8432 49.8924 18.9459 49.8354 18.9573 49.824C18.9687 49.8126 19.1816 49.6947 19.4326 49.5616C19.6836 49.4323 19.9079 49.3106 19.9307 49.2916C19.9574 49.2688 20.0752 49.2042 20.1969 49.1433C20.5392 48.9684 20.9765 48.7326 21.0715 48.668C21.1476 48.6186 21.1704 48.6224 21.3415 48.7136C22.1438 49.1547 23.6116 49.9457 23.8056 50.0483C23.912 50.1054 24.0147 50.1662 24.0413 50.1928C24.0641 50.2156 24.1402 50.2575 24.2124 50.2841C24.2809 50.3145 24.3798 50.3639 24.433 50.3982C24.4862 50.4362 24.6916 50.5503 24.8893 50.6567C25.087 50.7594 25.4483 50.9533 25.6878 51.0826C25.9274 51.2157 26.2126 51.364 26.3153 51.4173C26.4217 51.4705 26.513 51.5275 26.5244 51.5427C26.5358 51.5618 26.6385 51.6188 26.7526 51.672C26.8666 51.7253 27.0073 51.7975 27.0644 51.8355C27.1632 51.8964 27.1746 51.8964 27.4066 51.7747C27.5397 51.7062 27.7678 51.5808 27.9123 51.5009C28.0606 51.4173 28.266 51.307 28.3686 51.2499C28.5474 51.1587 28.9238 50.9571 29.2242 50.7898C29.2965 50.748 29.479 50.6491 29.6235 50.5693C30.1368 50.2917 30.4639 50.113 30.5741 50.0483C30.6388 50.0141 30.7643 49.9419 30.8593 49.8924C30.9544 49.843 31.1902 49.7137 31.3841 49.6034C31.578 49.497 31.7453 49.4095 31.7529 49.4095C31.7643 49.4095 31.8518 49.3601 31.9507 49.2992C32.1408 49.1851 32.6085 48.9342 32.9317 48.7707C33.0382 48.7174 33.1333 48.6566 33.1447 48.6414C33.1675 48.6034 33.3994 48.6984 33.5706 48.8125C33.6314 48.8543 33.7759 48.9342 33.8938 48.995C34.0117 49.0559 34.2132 49.1623 34.3387 49.2308C34.7874 49.4779 35.2551 49.7289 35.4224 49.8126C35.5175 49.862 35.6125 49.919 35.6392 49.9419C35.6658 49.9609 35.7494 50.0103 35.8293 50.0445C35.9091 50.0826 36.046 50.1586 36.1335 50.2156C36.221 50.2765 36.3122 50.3221 36.335 50.3221C36.354 50.3221 36.4453 50.3677 36.529 50.421C36.6164 50.4742 36.818 50.5883 36.9777 50.6758C37.1374 50.7594 37.3883 50.8963 37.5328 50.9762C37.6811 51.056 37.8751 51.1587 37.9701 51.2043C38.0652 51.2461 38.1488 51.2956 38.1603 51.3108C38.1717 51.3222 38.3808 51.4439 38.628 51.5808C38.8789 51.7139 39.1147 51.8431 39.1603 51.8698C39.225 51.9078 39.2554 51.9002 39.3353 51.8469C39.4417 51.7709 40.1984 51.3564 40.4912 51.2081C40.5939 51.1587 40.6966 51.1016 40.7194 51.0826C40.746 51.0598 40.8753 50.9876 41.0122 50.9191C41.305 50.767 41.883 50.4552 42.0959 50.3335C42.1796 50.2879 42.3583 50.189 42.4952 50.113C42.6321 50.0407 42.845 49.919 42.9705 49.8506C43.096 49.7783 43.3203 49.6605 43.4648 49.5844C43.7044 49.4627 44.0314 49.284 44.5676 48.9874C44.6741 48.9266 44.868 48.8239 44.9973 48.7517L45.2406 48.6262L45.4688 48.7364C45.5981 48.7973 45.7236 48.8695 45.754 48.9C45.7844 48.9304 45.8224 48.9532 45.8414 48.9532C45.8567 48.9532 45.9821 49.014 46.1152 49.0901C46.2445 49.1661 46.4917 49.2992 46.659 49.3905C46.8263 49.4779 47.0659 49.6072 47.1914 49.6757C47.3168 49.7441 47.4956 49.843 47.5906 49.8924C47.6857 49.9419 47.8492 50.0331 47.9519 50.0902C48.0583 50.1472 48.2637 50.2575 48.4082 50.3373C48.5565 50.4172 48.7428 50.5236 48.8265 50.5693C48.9101 50.6149 49.0888 50.7138 49.2257 50.786C49.5984 50.9876 50.2676 51.3526 50.511 51.4895C50.6289 51.5579 50.838 51.672 50.9749 51.7405C51.2031 51.8622 51.7925 52.1816 52.1917 52.4059C52.2868 52.4592 52.4579 52.5504 52.572 52.6113C52.6861 52.6721 52.8686 52.771 52.9713 52.8318C53.0777 52.8926 53.1842 52.9421 53.2108 52.9421C53.2488 52.9459 53.2565 48.7973 53.245 31.6971C53.2336 12.1748 53.226 10.4218 53.169 10.0719C53.1348 9.8628 53.0777 9.46733 53.0473 9.19735C52.9218 8.15925 52.5378 6.55076 52.2031 5.66096C51.8723 4.78257 51.2563 3.52012 51.051 3.29957C51.0091 3.25774 50.9749 3.21211 50.9749 3.1969C50.9749 3.10944 50.3855 2.39836 49.9748 1.98768C49.5604 1.5732 48.9139 1.04084 48.8227 1.04084C48.8074 1.04084 48.758 1.01042 48.7162 0.968593C48.6706 0.930567 48.4994 0.831701 48.3321 0.744242C47.7465 0.443839 47.0012 0.204277 46.313 0.0902C45.8681 0.0179512 45.5601 0.0141487 26.8476 0.0217538C16.3906 0.0217538 7.73211 0.0369641 7.60663 0.0559769ZM9.73227 4.15514C10.2912 4.31105 10.7209 4.5316 11.1012 4.86622C11.4358 5.15522 11.7971 5.5735 11.9492 5.83588C12.1279 6.14008 12.4169 6.71427 12.4169 6.7599C12.4169 6.78272 12.4397 6.84356 12.4663 6.8968C12.5157 6.99186 12.569 7.14016 12.7211 7.62309C12.8085 7.91208 12.9644 8.61175 13.0481 9.1213C13.0937 9.37987 13.1127 9.91603 13.128 11.2964L13.147 13.133H4.0132V11.4675C4.01701 9.80576 4.02081 9.7107 4.16911 8.79808C4.19192 8.64217 4.25657 8.34177 4.306 8.13263C4.35924 7.92349 4.41628 7.69153 4.43149 7.61928C4.4467 7.54703 4.49993 7.39113 4.54556 7.27705C4.59119 7.16297 4.64063 7.01467 4.65584 6.95383C4.67105 6.88919 4.70527 6.80553 4.72809 6.76371C4.7509 6.72188 4.84977 6.52414 4.94483 6.32641C5.15397 5.90052 5.37833 5.55449 5.6369 5.26169C5.86505 4.99931 6.11983 4.76736 6.17686 4.76736C6.19968 4.76736 6.21869 4.75215 6.21869 4.73694C6.21869 4.72173 6.27573 4.6761 6.34418 4.63427C6.40882 4.59624 6.47346 4.55061 6.48487 4.5354C6.51529 4.48977 7.06286 4.235 7.13131 4.235C7.16173 4.235 7.29862 4.19697 7.43551 4.15514C7.79676 4.04107 8.10857 4.01065 8.7474 4.02586C9.23413 4.04107 9.37863 4.06008 9.73227 4.15514ZM45.8186 4.06388C46.2635 4.17416 46.4765 4.28063 46.8605 4.56582C47.1571 4.79398 47.545 5.23127 47.7427 5.5659C47.8948 5.82067 48.1724 6.37204 48.2371 6.55456C48.2637 6.62681 48.2979 6.70286 48.3131 6.72568C48.412 6.86637 48.7618 8.087 48.9025 8.77907C48.9519 9.03004 49.0014 9.2772 49.0128 9.33044C49.0242 9.38367 49.0432 9.46733 49.0546 9.52057C49.0736 9.61943 49.1193 10.0111 49.2067 10.9275C49.2561 11.399 49.2638 14.0494 49.2638 28.8452C49.2638 38.4011 49.2523 46.2153 49.2409 46.2153C49.2181 46.2153 48.5527 45.8617 48.2941 45.7134C48.2333 45.6792 48.104 45.6107 48.0089 45.5651C47.9138 45.5195 47.8112 45.4624 47.7808 45.4358C47.7503 45.4092 47.545 45.2951 47.3244 45.181C46.9366 44.9757 46.3434 44.6525 45.9175 44.4167C45.5829 44.2266 45.2939 44.0859 45.2406 44.0859C45.195 44.0859 44.9212 44.2228 44.6056 44.4053C44.522 44.4509 44.2672 44.5916 44.0352 44.7171C43.8071 44.8388 43.5333 44.9871 43.4268 45.0442C43.3241 45.105 43.134 45.2039 43.0085 45.2685C42.883 45.3293 42.5674 45.5043 42.3051 45.6488C41.7841 45.9454 41.3886 46.1583 41.0122 46.3522C40.8753 46.4245 40.746 46.4967 40.7194 46.5195C40.6966 46.5386 40.5939 46.5956 40.4912 46.645C40.3924 46.6983 40.1756 46.8123 40.0121 46.9036C39.8448 46.9949 39.6319 47.1127 39.5368 47.1584C39.4379 47.2078 39.3315 47.2725 39.2972 47.3029C39.2364 47.3561 39.1109 47.3409 39.1109 47.2801C39.1109 47.2649 39.012 47.2078 38.8942 47.1508C38.7725 47.0937 38.5633 46.9835 38.4264 46.8998C38.2895 46.8161 38.1108 46.7173 38.0272 46.6754C37.9435 46.6336 37.6887 46.4929 37.4568 46.3674C37.2286 46.2382 36.9358 46.0822 36.8103 46.0214C36.6849 45.9568 36.4871 45.8503 36.3693 45.7857C36.2552 45.7172 36.0498 45.6069 35.9129 45.5347C35.7799 45.4662 35.662 45.394 35.6506 45.3788C35.6392 45.3636 35.5365 45.3065 35.4224 45.2533C35.3083 45.1963 35.1106 45.0936 34.9851 45.0251C34.8596 44.9567 34.5934 44.8122 34.3957 44.7057C34.198 44.5992 33.9584 44.47 33.8634 44.4167C33.7683 44.3635 33.582 44.2608 33.4489 44.1886L33.2093 44.0593L32.9926 44.1696C32.8747 44.2342 32.696 44.3331 32.5895 44.3901C32.4868 44.4471 32.2815 44.5612 32.1332 44.6373C31.9887 44.7171 31.7986 44.8198 31.7149 44.8692C31.6313 44.9187 31.4601 45.0099 31.3346 45.0746C31.2092 45.1354 31.0038 45.2495 30.8783 45.3179C30.7529 45.3902 30.597 45.4776 30.5323 45.5081C30.4639 45.5385 30.3118 45.6259 30.1901 45.6944C30.0646 45.7666 29.8288 45.8959 29.6615 45.9872C28.7717 46.4587 28.1367 46.8047 28.1215 46.8238C28.1101 46.839 28.0188 46.8922 27.9123 46.9454C27.8097 46.9987 27.5967 47.1089 27.4484 47.1888L27.1708 47.3371L27.0492 47.2649C26.9313 47.2002 26.8362 47.1432 26.4293 46.9188C26.3457 46.8732 26.0301 46.7021 25.7259 46.5386C25.4217 46.3789 25.0794 46.1925 24.9653 46.1279C24.6079 45.9225 24.4596 45.8427 24.2809 45.759C24.1858 45.7134 24.0832 45.6564 24.0527 45.6297C24.0223 45.6031 23.7561 45.4548 23.4633 45.3027C23.1705 45.1506 22.9158 45.0137 22.893 44.9985C22.8739 44.9795 22.6686 44.8692 22.4366 44.7514C22.2085 44.6297 21.9917 44.5118 21.9613 44.4852C21.9309 44.4586 21.8206 44.4015 21.7142 44.3559C21.6115 44.3103 21.5164 44.2608 21.505 44.2418C21.4936 44.2228 21.4138 44.1734 21.3225 44.1277L21.159 44.0441L20.9727 44.1582C20.8738 44.219 20.7027 44.3065 20.5962 44.3559C20.4897 44.4015 20.4023 44.4509 20.4023 44.4662C20.4023 44.4814 20.311 44.5346 20.2045 44.5802C20.0943 44.6259 19.9764 44.6867 19.946 44.7133C19.9155 44.7399 19.7102 44.854 19.4897 44.9681C18.9801 45.2381 18.0561 45.74 17.9306 45.8199C17.8774 45.8503 17.7633 45.9111 17.672 45.953C17.5808 45.9948 17.4477 46.0708 17.3716 46.1241C17.2956 46.1735 17.2195 46.2153 17.2043 46.2153C17.1853 46.2153 17.1663 37.9562 17.1587 27.8565C17.1511 11.0074 17.1435 9.47113 17.0864 9.1213C17.0522 8.91216 16.9952 8.5281 16.9609 8.26572C16.9267 8.00334 16.8659 7.67632 16.8241 7.53943C16.786 7.40254 16.7518 7.24283 16.7518 7.18959C16.7518 7.13255 16.7024 6.93102 16.6415 6.73709C16.5807 6.54316 16.5237 6.34162 16.5122 6.28838C16.459 6.0108 16.1966 5.37577 15.805 4.57723C15.6681 4.29584 15.5502 4.05247 15.5426 4.03346C15.535 4.01825 22.2921 4.00684 30.5551 4.00684C43.9212 4.00684 45.6095 4.01445 45.8186 4.06388Z" fill="black"/>
<path d="M23.3379 15.137L23.3493 17.1447H39.7764L39.7878 15.137L39.7954 13.133H23.3302L23.3379 15.137Z" fill="black"/>
<path d="M23.3569 23.0083C23.3417 23.0197 23.3302 23.9285 23.3302 25.0236V27.0124H36.5252V22.9817H29.9543C26.3381 22.9817 23.3683 22.9931 23.3569 23.0083Z" fill="black"/>
<path d="M23.3302 36.861L39.7764 36.842V32.8493L23.3302 32.8303V36.861Z" fill="black"/>
</svg>
