<svg width="26" height="24" viewBox="0 0 26 24" fill="none" xmlns="http://www.w3.org/2000/svg">
<path d="M4.09633 24H21.9167C24.6432 24 26 22.6442 26 19.9586V4.04127C26 1.35578 24.6432 0 21.9167 0H4.09633C1.36979 0 0 1.34275 0 4.04127V19.9586C0 22.6572 1.36979 24 4.09633 24ZM3.90065 21.9011C2.73959 21.9011 2.10035 21.2884 2.10035 20.076V7.78271C2.10035 6.58337 2.73959 5.95762 3.90065 5.95762H22.0862C23.2473 5.95762 23.8997 6.58337 23.8997 7.78271V20.076C23.8997 21.2884 23.2473 21.9011 22.0862 21.9011H3.90065ZM10.4626 10.6377H11.2323C11.6889 10.6377 11.8324 10.5073 11.8324 10.051V9.2819C11.8324 8.82562 11.6889 8.68221 11.2323 8.68221H10.4626C10.006 8.68221 9.84946 8.82562 9.84946 9.2819V10.051C9.84946 10.5073 10.006 10.6377 10.4626 10.6377ZM14.7938 10.6377H15.5635C16.02 10.6377 16.1765 10.5073 16.1765 10.051V9.2819C16.1765 8.82562 16.02 8.68221 15.5635 8.68221H14.7938C14.3372 8.68221 14.1806 8.82562 14.1806 9.2819V10.051C14.1806 10.5073 14.3372 10.6377 14.7938 10.6377ZM19.1249 10.6377H19.8946C20.3511 10.6377 20.5078 10.5073 20.5078 10.051V9.2819C20.5078 8.82562 20.3511 8.68221 19.8946 8.68221H19.1249C18.6683 8.68221 18.5248 8.82562 18.5248 9.2819V10.051C18.5248 10.5073 18.6683 10.6377 19.1249 10.6377ZM6.13145 14.9006H6.8881C7.35775 14.9006 7.50124 14.7702 7.50124 14.3139V13.5448C7.50124 13.0886 7.35775 12.9582 6.8881 12.9582H6.13145C5.66181 12.9582 5.51831 13.0886 5.51831 13.5448V14.3139C5.51831 14.7702 5.66181 14.9006 6.13145 14.9006ZM10.4626 14.9006H11.2323C11.6889 14.9006 11.8324 14.7702 11.8324 14.3139V13.5448C11.8324 13.0886 11.6889 12.9582 11.2323 12.9582H10.4626C10.006 12.9582 9.84946 13.0886 9.84946 13.5448V14.3139C9.84946 14.7702 10.006 14.9006 10.4626 14.9006ZM14.7938 14.9006H15.5635C16.02 14.9006 16.1765 14.7702 16.1765 14.3139V13.5448C16.1765 13.0886 16.02 12.9582 15.5635 12.9582H14.7938C14.3372 12.9582 14.1806 13.0886 14.1806 13.5448V14.3139C14.1806 14.7702 14.3372 14.9006 14.7938 14.9006ZM19.1249 14.9006H19.8946C20.3511 14.9006 20.5078 14.7702 20.5078 14.3139V13.5448C20.5078 13.0886 20.3511 12.9582 19.8946 12.9582H19.1249C18.6683 12.9582 18.5248 13.0886 18.5248 13.5448V14.3139C18.5248 14.7702 18.6683 14.9006 19.1249 14.9006ZM6.13145 19.1765H6.8881C7.35775 19.1765 7.50124 19.0331 7.50124 18.5769V17.8076C7.50124 17.3514 7.35775 17.221 6.8881 17.221H6.13145C5.66181 17.221 5.51831 17.3514 5.51831 17.8076V18.5769C5.51831 19.0331 5.66181 19.1765 6.13145 19.1765ZM10.4626 19.1765H11.2323C11.6889 19.1765 11.8324 19.0331 11.8324 18.5769V17.8076C11.8324 17.3514 11.6889 17.221 11.2323 17.221H10.4626C10.006 17.221 9.84946 17.3514 9.84946 17.8076V18.5769C9.84946 19.0331 10.006 19.1765 10.4626 19.1765ZM14.7938 19.1765H15.5635C16.02 19.1765 16.1765 19.0331 16.1765 18.5769V17.8076C16.1765 17.3514 16.02 17.221 15.5635 17.221H14.7938C14.3372 17.221 14.1806 17.3514 14.1806 17.8076V18.5769C14.1806 19.0331 14.3372 19.1765 14.7938 19.1765Z" fill="#FF941D"/>
</svg>
