<svg width="37" height="37" viewBox="0 0 37 37" fill="none" xmlns="http://www.w3.org/2000/svg">
<path d="M36.4214 18.5C36.4214 28.398 28.3975 36.4219 18.4995 36.4219C8.60151 36.4219 0.577637 28.398 0.577637 18.5C0.577637 8.602 8.60151 0.578125 18.4995 0.578125C28.3975 0.578125 36.4214 8.602 36.4214 18.5ZM16.4265 27.9895L29.7234 14.6926C30.1749 14.2411 30.1749 13.509 29.7234 13.0575L28.0882 11.4223C27.6367 10.9707 26.9046 10.9707 26.453 11.4223L15.6089 22.2663L10.546 17.2035C10.0945 16.752 9.36239 16.752 8.9108 17.2035L7.27565 18.8386C6.82413 19.2902 6.82413 20.0223 7.27565 20.4738L14.7913 27.9894C15.2429 28.441 15.9749 28.441 16.4265 27.9895Z" fill="#75F94C"/>
</svg>
