<svg width="35" height="35" viewBox="0 0 35 35" fill="none" xmlns="http://www.w3.org/2000/svg">
<path d="M17.5 0C7.8505 0 0 7.8505 0 17.5C0 27.1495 7.8505 35 17.5 35C27.1495 35 35 27.1495 35 17.5C35 7.8505 27.1495 0 17.5 0ZM3.5 17.5C3.5 14.2695 4.6095 11.3015 6.454 8.93025L26.0697 28.546C23.6233 30.4602 20.6063 31.5002 17.5 31.5C9.78075 31.5 3.5 25.2192 3.5 17.5ZM28.546 26.0697L8.93025 6.454C11.3768 4.54002 14.3937 3.5001 17.5 3.5C25.2192 3.5 31.5 9.78075 31.5 17.5C31.4991 20.6062 30.4593 23.6228 28.546 26.0697Z" fill="#FF941D"/>
</svg>
