<svg width="36" height="36" viewBox="0 0 36 36" fill="none" xmlns="http://www.w3.org/2000/svg">
<path d="M18 35.2332C27.4382 35.2332 35.25 27.4085 35.25 17.9916C35.25 8.55771 27.4211 0.75 17.9834 0.75C8.5619 0.75 0.75 8.55819 0.75 17.9916C0.75 27.4087 8.57873 35.2332 18 35.2332ZM18 31.9014C10.2717 31.9014 4.10001 25.7167 4.10001 17.9916C4.10001 10.2663 10.2554 4.08194 17.9834 4.08194C25.7125 4.08194 31.9168 10.2674 31.9168 17.9916C31.9168 25.7163 25.7288 31.9014 18 31.9014ZM9.28337 20.041H17.9834C18.769 20.041 19.4 19.4317 19.4 18.6248V7.39699C19.4 6.60443 18.7665 5.99756 17.9834 5.99756C17.1955 5.99756 16.5834 6.60911 16.5834 7.39699V17.2253H9.28337C8.48111 17.2253 7.8667 17.8346 7.8667 18.6248C7.8667 19.4293 8.47872 20.041 9.28337 20.041Z" fill="#FF941D" stroke="#FF941D" stroke-width="0.5"/>
</svg>
