<svg width="54" height="54" viewBox="0 0 54 54" fill="none" xmlns="http://www.w3.org/2000/svg">
<path d="M23.1957 0.092493C22.5741 0.25265 22.0174 0.641601 21.6209 1.17927C21.2701 1.66355 21.1786 1.96861 20.9688 3.42909C20.9231 3.72271 20.8316 4.31376 20.7553 4.74466C20.6829 5.17556 20.5646 5.86957 20.496 6.28903C20.4236 6.70849 20.3435 7.18133 20.3206 7.3453L20.2749 7.63511L19.8097 7.8067C19.4512 7.94398 18.7039 8.25667 18.2425 8.4664C18.2044 8.48165 17.926 8.29861 16.9651 7.60842C16.702 7.41775 16.3169 7.1432 16.1072 6.99448C15.8975 6.84576 15.5124 6.57121 15.2493 6.38055C14.9861 6.1937 14.5858 5.9077 14.3532 5.74755C14.1244 5.58739 13.8842 5.41579 13.8232 5.36622C13.6973 5.25945 13.3275 5.06879 13.0987 4.9849C12.8394 4.89338 12.5801 4.85525 12.1988 4.85525C11.5849 4.85525 11.135 4.99252 10.6355 5.32809C10.5401 5.39291 9.43053 6.47588 8.1646 7.73425C6.17418 9.72096 5.84245 10.068 5.67849 10.3311C5.36582 10.8459 5.23998 11.2806 5.2438 11.8373C5.24761 12.314 5.35438 12.7067 5.61366 13.1529C5.80432 13.4885 5.90346 13.6372 6.36484 14.2702C6.49067 14.4456 6.61268 14.6248 6.63556 14.6667C6.65844 14.7125 6.85291 14.9909 7.07025 15.2845C7.28378 15.5819 7.48206 15.8641 7.50875 15.9175C7.53544 15.9709 7.71466 16.2264 7.90531 16.4895C8.38957 17.153 8.80519 17.7784 8.80519 17.8432C8.80519 17.8737 8.74799 18.0072 8.67555 18.1368C8.60691 18.2703 8.51921 18.4609 8.48108 18.5677C8.44676 18.6707 8.40101 18.7927 8.38194 18.8346C8.36287 18.8766 8.25611 19.1397 8.14553 19.4219L7.94344 19.9367L7.29903 20.0434C6.94061 20.1006 6.43728 20.1845 6.17418 20.2265C5.91108 20.2684 5.55265 20.3256 5.37344 20.3561C5.19423 20.3866 4.43162 20.5163 3.67663 20.6459C2.51746 20.8404 2.26199 20.8976 2.03702 20.9967C1.36592 21.3018 0.862598 21.8013 0.561367 22.4648C0.34021 22.9568 0.34021 22.9224 0.34021 26.5031C0.34021 28.5699 0.355462 29.8626 0.378341 29.9922C0.47748 30.5223 0.75202 31.0142 1.19815 31.4603C1.69766 31.9637 2.09421 32.12 3.44785 32.3526C3.95117 32.4403 4.53457 32.5433 4.74429 32.5814C4.95401 32.6234 5.22855 32.6729 5.35438 32.692C6.02929 32.7988 7.80617 33.1229 7.87862 33.1534C7.92437 33.1725 7.97776 33.2487 8.00445 33.3326C8.03114 33.4127 8.13791 33.6796 8.23704 33.9313C8.34 34.1792 8.42388 34.4003 8.42388 34.4194C8.42388 34.4385 8.51158 34.6368 8.61835 34.8656L8.81282 35.2812L8.63742 35.5214C8.53828 35.6549 8.24467 36.0667 7.98538 36.4328C7.72228 36.7989 7.3181 37.367 7.08169 37.6874C6.84528 38.0115 6.62031 38.3318 6.57837 38.3928C6.54024 38.4576 6.33052 38.7513 6.11699 39.0449C5.39632 40.0287 5.22092 40.4176 5.19041 41.0964C5.16372 41.737 5.26286 42.1222 5.60604 42.6903C5.77763 42.9763 6.05979 43.27 8.09215 45.3024C9.35427 46.5608 10.4639 47.6438 10.5592 47.7086C11.4934 48.3416 12.6182 48.3759 13.5601 47.8039C13.7812 47.6705 14.01 47.5141 15.1539 46.7057C15.4056 46.5303 15.8098 46.2481 16.05 46.0803C16.2902 45.9125 16.6944 45.6304 16.9461 45.455C17.1977 45.2757 17.5752 45.0126 17.7849 44.8639L18.1662 44.6008L18.3149 44.6771C18.6391 44.8448 19.8364 45.3291 20.1223 45.413C20.2329 45.4435 20.2634 45.5121 20.3168 45.8325C20.3664 46.1375 20.4464 46.5989 20.6867 47.987C20.7782 48.5208 20.8964 49.2415 20.9498 49.5885C21.1633 50.9918 21.2357 51.293 21.4645 51.6858C21.8573 52.3608 22.4826 52.8374 23.2109 53.0243C23.4816 53.0929 23.657 53.0967 26.3491 53.0967H29.2012L29.0868 52.8755C29.0258 52.7573 28.9305 52.4866 28.8733 52.2769C28.7818 51.9184 28.7742 51.8307 28.7551 50.8164L28.7398 49.7411H24.3739L24.3472 49.5389C24.3205 49.3445 24.1756 48.4712 23.9201 47.0336C23.8515 46.6256 23.7638 46.088 23.7333 45.8439C23.7028 45.5999 23.6265 45.1194 23.5655 44.7762C23.5045 44.433 23.4092 43.8763 23.3482 43.5369C23.291 43.1937 23.2338 42.9001 23.2223 42.881C23.2109 42.8619 22.944 42.7742 22.6275 42.6865C21.5217 42.3738 20.8163 42.1184 19.8974 41.7027C19.5733 41.554 19.2453 41.4015 19.1729 41.3595C19.1042 41.3176 18.7916 41.146 18.4827 40.9744L17.9222 40.6655L17.682 40.8371C17.5485 40.9324 17.2435 41.146 17.0033 41.3138C16.763 41.4815 16.3589 41.7637 16.1072 41.9391C15.8555 42.1184 15.4475 42.4044 15.1959 42.5798C14.948 42.7552 14.5171 43.0526 14.2426 43.2471C13.2283 43.9563 12.8318 44.2347 12.5191 44.4483L12.2026 44.6694L10.8223 43.2852C10.0635 42.5264 9.28182 41.737 9.08354 41.5349L8.7213 41.165L9.03397 40.7341C9.20556 40.4977 9.54111 40.0325 9.77752 39.7046C10.0177 39.3728 10.2389 39.0563 10.2732 38.9991C10.3037 38.9381 10.4601 38.7207 10.6202 38.511C10.7765 38.3013 10.9748 38.0267 11.0587 37.9009C11.1426 37.7751 11.3904 37.4242 11.6116 37.1192C11.8328 36.8141 12.1836 36.3298 12.3895 36.04L12.767 35.5176L12.481 35.0143C12.0844 34.3241 11.5468 33.2144 11.3066 32.5814C11.1883 32.2725 10.8795 31.3192 10.6545 30.5795C10.5973 30.3888 10.5401 30.2248 10.5287 30.2096C10.5134 30.1981 10.2542 30.1409 9.94911 30.0875C9.64406 30.0342 8.76325 29.8778 7.98538 29.7405C7.21133 29.6033 6.38771 29.4545 6.15512 29.4164C5.92633 29.3745 5.50309 29.2982 5.22092 29.2486C4.93875 29.1991 4.47737 29.1152 4.20283 29.0694L3.6957 28.9779V26.5107C3.6957 25.1494 3.70714 24.0397 3.7262 24.0397C3.75289 24.0397 8.47727 23.258 9.28182 23.1207C9.53348 23.0788 9.9186 23.014 10.1398 22.9796L10.5401 22.9148L10.6469 22.5716C10.7041 22.381 10.7651 22.175 10.7842 22.114C11.1807 20.7946 11.3828 20.2722 11.9815 19.0444C12.2598 18.48 12.3399 18.3237 12.6449 17.8089L12.7746 17.5801L12.6221 17.3703C12.5382 17.2521 12.3323 16.9585 12.1683 16.7183C12.0043 16.478 11.7069 16.051 11.5086 15.7726C11.3104 15.498 10.9367 14.9604 10.6736 14.5829C10.4105 14.2053 10.0139 13.641 9.78896 13.3245C9.56399 13.0118 9.35808 12.7144 9.3352 12.6686C9.30851 12.6228 9.17506 12.4246 9.03397 12.2301L8.77468 11.8793L10.5096 10.1404C11.4629 9.1871 12.256 8.40539 12.2713 8.40539C12.2865 8.40539 12.4467 8.50834 12.6221 8.63418C12.7975 8.76002 13.1483 9.00788 13.3999 9.1871C13.6516 9.36633 14.071 9.66376 14.3341 9.85442C14.5972 10.0451 14.99 10.3273 15.2111 10.4836C15.4323 10.64 15.825 10.9221 16.0881 11.109C16.3512 11.2958 16.7783 11.6009 17.0376 11.7877C17.2969 11.9708 17.5981 12.1881 17.7049 12.2644C17.8116 12.3407 17.9146 12.4055 17.9336 12.4093C17.9489 12.4093 18.2425 12.2606 18.5819 12.0775C20.1147 11.2501 21.0756 10.8611 22.761 10.3883C23.0012 10.3196 23.2109 10.2548 23.2262 10.2396C23.2452 10.2243 23.2986 9.97263 23.3482 9.68282C23.6227 8.12702 23.6799 7.77239 23.7333 7.33767C23.7676 7.07456 23.8515 6.52545 23.9239 6.11743C24.187 4.61882 24.3205 3.8066 24.3472 3.58925L24.3701 3.37189H29.3118L29.369 3.70364C29.4872 4.36334 29.7007 5.53782 29.8304 6.2509C29.9028 6.64748 29.9905 7.16226 30.021 7.39487C30.0515 7.62367 30.1125 7.99355 30.1545 8.21472C30.1964 8.43589 30.2917 8.97356 30.3718 9.4159C30.4481 9.85442 30.5282 10.2319 30.5434 10.251C30.5587 10.2663 30.8523 10.3654 31.1954 10.4645C32.2402 10.7734 33.0066 11.048 33.6549 11.3454C33.7959 11.4102 34.0019 11.5017 34.1048 11.5513C34.2878 11.6314 35.4051 12.2339 35.691 12.4055L35.8283 12.4856L36.1677 12.2339C36.3545 12.0928 36.6634 11.8716 36.8502 11.7382C37.0409 11.6047 37.4031 11.3454 37.6548 11.1586C37.9102 10.9755 38.322 10.6819 38.5699 10.5065C38.8215 10.3273 39.0313 10.1747 39.0427 10.1595C39.0541 10.148 39.2524 10.0031 39.4812 9.84298C39.7138 9.67901 40.1256 9.38539 40.3963 9.19092C40.6709 8.99263 41.0331 8.73332 41.2085 8.6113L41.525 8.39013L43.2561 10.1213C44.2094 11.0747 44.9911 11.8678 44.9911 11.8869C44.9911 11.9021 44.8729 12.0737 44.728 12.2682C44.5869 12.4627 44.4458 12.661 44.4229 12.7105C44.3962 12.7601 44.217 13.0156 44.0226 13.2825C43.8281 13.5457 43.5688 13.9193 43.4392 14.1062C43.3133 14.2969 43.0845 14.6248 42.9282 14.8422C42.7719 15.0557 42.5812 15.3303 42.5011 15.4485C42.4211 15.5705 42.2037 15.8832 42.0169 16.1463C41.1094 17.4161 40.9874 17.5915 40.9874 17.6373C40.9874 17.664 41.1208 17.9271 41.2886 18.2207C41.7309 19.0139 42.2991 20.2379 42.524 20.8747C42.5927 21.0768 42.8977 22.053 42.9854 22.3733L43.0502 22.5907L43.4964 22.8157C43.9768 23.0559 43.9463 23.0483 45.4868 23.2961C45.8109 23.3457 46.7031 23.4906 47.4696 23.6165C48.236 23.7423 48.9833 23.8643 49.1282 23.8872C49.2769 23.9101 49.5439 23.9558 49.7307 23.9863L50.0624 24.0473V28.4173L51.1415 28.4326C52.152 28.4517 52.2397 28.4555 52.5981 28.5508C52.8078 28.608 53.0786 28.7033 53.2006 28.7605L53.4179 28.8711V25.9273C53.4179 23.0407 53.4179 22.9796 53.3378 22.7394C53.2349 22.4229 53.1167 22.1979 52.9299 21.9462C52.5676 21.4658 52.2359 21.195 51.7326 20.9853C51.4313 20.8557 51.0881 20.7908 47.6793 20.2493C46.6726 20.0854 45.8261 19.9443 45.7956 19.929C45.7499 19.9023 45.605 19.5782 45.4067 19.0444C45.3647 18.93 45.2694 18.6974 45.1932 18.5296C45.1207 18.3618 45.0254 18.1444 44.9834 18.0453L44.9072 17.8661L45.1017 17.5877C45.2084 17.4352 45.5211 16.9928 45.7918 16.6039C46.7718 15.2044 47.0959 14.743 47.5229 14.1443C48.3389 13.0042 48.4953 12.6648 48.5258 11.9593C48.5487 11.4827 48.5105 11.2119 48.3656 10.8421C48.1368 10.2624 48.0796 10.1976 45.6889 7.8067C44.4458 6.56358 43.3438 5.48062 43.2409 5.40054C42.7909 5.04591 42.2075 4.85525 41.5555 4.85525C40.8043 4.85525 40.526 4.97346 39.4621 5.72848C39.0541 6.01829 38.8139 6.18989 37.6357 7.04024C37.2163 7.3453 36.8044 7.63892 35.9541 8.24523L35.5614 8.52741L35.3517 8.42445C35.0314 8.26811 34.5738 8.07363 34.0285 7.8639C33.7578 7.76095 33.5214 7.6618 33.5062 7.65036C33.4947 7.63511 33.4185 7.27285 33.3422 6.84195C33.2659 6.41105 33.1782 5.92296 33.1477 5.75517C33.0066 4.99252 32.9342 4.56163 32.8274 3.92481C32.6635 2.92193 32.5224 2.15928 32.4614 1.94955C32.3813 1.65974 32.1525 1.26316 31.8932 0.961915C31.6187 0.641601 31.4319 0.496698 31.0124 0.286969C30.4519 0.00860141 30.5625 0.0162279 26.8142 0.0200412C23.6723 0.0200412 23.4511 0.0238544 23.1957 0.092493Z" fill="black"/>
<path d="M26.6121 17.317C25.2242 17.3665 23.8973 17.7059 22.7038 18.3122C22.189 18.5715 21.1785 19.2312 21.026 19.4028C21.007 19.4257 20.8697 19.5477 20.7248 19.6735C20.2482 20.0892 19.375 21.0921 19.1805 21.4467C19.1462 21.5115 19.0242 21.7213 18.906 21.9157C18.6238 22.3733 18.4675 22.6898 18.3264 23.0673C17.8231 24.4439 17.6477 25.3439 17.6477 26.5794C17.6477 27.5555 17.7887 28.4288 18.0862 29.3401C18.3874 30.263 18.5208 30.5718 18.906 31.1972C19.0242 31.3917 19.1462 31.6014 19.1805 31.6662C19.375 32.0209 20.252 33.0314 20.7248 33.4432C20.8697 33.5652 21.007 33.6873 21.026 33.7101C21.1824 33.8779 22.0555 34.4575 22.536 34.713C23.9087 35.4414 25.2928 35.7884 26.8181 35.7884C28.1526 35.7884 29.1631 35.6015 30.3489 35.1363C32.1144 34.4423 33.7769 33.039 34.7797 31.3917C35.0581 30.9303 35.3555 30.3507 35.4508 30.0761C35.4927 29.9541 35.5881 29.6757 35.6682 29.4545C35.9732 28.5661 36.1028 27.8339 36.1333 26.8234C36.1715 25.4697 36.0037 24.5164 35.4775 23.1055C35.2792 22.564 34.8026 21.706 34.3831 21.1226C33.9485 20.5201 33.0982 19.6545 32.4804 19.1855C31.5157 18.4533 30.3032 17.8737 29.1097 17.5763C28.4119 17.4009 27.3557 17.2903 26.6121 17.317ZM27.7751 20.7374C29.0678 20.9662 30.0782 21.4658 30.9667 22.3199C31.2984 22.6364 31.714 23.1322 31.8208 23.3343C31.8513 23.3915 31.9352 23.5402 32.0076 23.6584C32.4309 24.3524 32.6558 25.0693 32.7321 25.954C32.8503 27.2848 32.6063 28.4517 32.0076 29.4469C31.9009 29.63 31.8017 29.7977 31.7941 29.8244C31.756 29.9312 31.2717 30.5032 30.9667 30.793C30.0553 31.6662 28.9343 32.2077 27.6493 32.3908C27.1269 32.467 26.147 32.4251 25.6093 32.2992C24.5455 32.0552 23.577 31.529 22.8067 30.7739C22.4635 30.4422 22.0479 29.935 21.8992 29.6719C21.1633 28.364 20.9498 27.445 21.0451 26.0302C21.0985 25.2409 21.2662 24.6575 21.6437 23.9253C21.9145 23.3953 21.9907 23.2694 22.2119 22.9911C23.1842 21.7594 24.4921 20.9777 25.983 20.7413C26.4062 20.6726 27.3976 20.6726 27.7751 20.7374Z" fill="black"/>
<path d="M47.8699 29.9198C47.664 29.996 47.378 30.2019 47.1759 30.4193C46.9662 30.6519 46.8404 30.9265 46.7794 31.2849C46.7298 31.59 46.7336 51.3693 46.787 51.6858C46.8747 52.2387 47.2026 52.6925 47.6907 52.9327L47.9805 53.0776H52.2549L52.4837 52.9671C52.8879 52.7688 53.2235 52.3874 53.3569 51.9718C53.4141 51.7964 53.4179 50.8888 53.4103 41.4091L53.3989 31.037L53.2959 30.8197C53.1091 30.4231 52.8765 30.1943 52.438 29.9731L52.2435 29.874L50.1158 29.8778C48.705 29.8778 47.9462 29.8931 47.8699 29.9198Z" fill="black"/>
<path d="M39.607 38.2212C39.3211 38.3127 39.1685 38.4119 38.9436 38.6521C38.7033 38.9076 38.608 39.0677 38.5318 39.3309C38.4746 39.5215 38.4707 40.1545 38.4784 45.7219L38.4898 51.8955L38.6118 52.1472C38.7834 52.4942 39.0885 52.7993 39.4126 52.9556L39.6719 53.0776H43.9425L44.1941 52.9556C44.5144 52.7955 44.8385 52.4637 45.0025 52.1167L45.1245 51.8574V45.6418C45.1245 39.5406 45.1245 39.4224 45.0483 39.2546C44.8233 38.736 44.4382 38.3585 44.0073 38.225C43.7785 38.1526 43.6489 38.1488 41.7919 38.1526C39.9998 38.1526 39.8053 38.1602 39.607 38.2212Z" fill="black"/>
<path d="M31.2984 44.8715C31.0239 44.963 30.6769 45.2033 30.5243 45.4016C30.4748 45.4702 30.3794 45.6265 30.3146 45.7524L30.1964 45.9736V48.9212C30.1964 51.0299 30.2079 51.9032 30.2384 51.9947C30.307 52.1968 30.6044 52.6239 30.7684 52.7535C30.8485 52.8183 31.0162 52.9175 31.1382 52.9747L31.3594 53.0776H35.63L35.8893 52.9556C36.2134 52.7993 36.507 52.5057 36.6824 52.1548L36.8121 51.8955V46.0193L36.6786 45.7524C36.5299 45.455 36.1944 45.0965 35.9427 44.9707C35.5957 44.7914 35.5156 44.7838 33.4756 44.7838C31.5767 44.7876 31.5462 44.7876 31.2984 44.8715Z" fill="black"/>
</svg>
