<svg width="54" height="54" viewBox="0 0 54 54" fill="none" xmlns="http://www.w3.org/2000/svg">
<path d="M12.618 0.0427154C12.2772 0.0771794 12.1126 0.146107 11.6033 0.479259C11.3965 0.617115 10.5502 1.44042 10.5502 1.50552C10.5502 1.52084 10.4468 1.64721 10.3204 1.78889C10.1941 1.92675 10.0907 2.05694 10.0907 2.07609C10.0907 2.09141 10.0141 2.1948 9.92218 2.29819C9.83027 2.40158 9.69242 2.57773 9.61966 2.68878C9.48563 2.88791 9.12568 3.3436 8.84997 3.66526C8.77338 3.75334 8.66616 3.8912 8.61255 3.97161C8.55511 4.05203 8.43257 4.20903 8.33301 4.32008C8.23727 4.4273 8.07261 4.63026 7.96539 4.77194C7.862 4.91363 7.71265 5.10126 7.63607 5.18551C7.55948 5.27358 7.46758 5.39612 7.43311 5.46122C7.37567 5.57227 7.33738 5.62205 7.09613 5.94372C6.99274 6.08157 6.79744 6.61002 6.79744 6.75937C6.79744 6.80149 6.77064 6.90871 6.74 6.99295C6.66725 7.19974 6.66342 8.05751 6.73617 8.28344C6.76681 8.37534 6.80127 8.52469 6.81276 8.61659C6.82808 8.7085 6.86254 8.83104 6.88935 8.88465C7.0923 9.29438 7.17272 9.43224 7.30674 9.61605C7.39099 9.73093 7.51353 9.87644 7.57863 9.93388C7.86966 10.2019 7.93858 10.2632 8.13771 10.4049C8.25259 10.493 8.45171 10.6078 8.57808 10.6691C8.70445 10.7266 8.85379 10.7955 8.90741 10.8261C8.96102 10.8529 9.08356 10.8874 9.17546 10.9027C9.26736 10.9142 9.41671 10.9487 9.50861 10.9793C9.62732 11.0176 9.8992 11.0329 10.5119 11.0329H11.3543V11.1248C11.3543 11.1784 11.339 11.2282 11.3199 11.2397C11.3007 11.255 11.2739 11.3546 11.2586 11.4656C11.2433 11.5728 11.2088 11.6992 11.182 11.7413C11.1552 11.7835 11.1208 11.8983 11.1054 11.9902C11.0901 12.086 11.0633 12.1779 11.048 12.2008C11.0327 12.22 11.0059 12.3157 10.9906 12.4115C10.9752 12.5072 10.9408 12.6221 10.914 12.6642C10.8833 12.7101 10.8489 12.8365 10.8336 12.9437C10.8182 13.051 10.7953 13.1505 10.7761 13.1582C10.7608 13.1697 10.734 13.2731 10.7225 13.3879C10.7072 13.5067 10.6804 13.61 10.6612 13.6215C10.6421 13.633 10.6268 13.679 10.6268 13.7249C10.6268 13.7709 10.5923 13.8666 10.5502 13.9355C10.5042 14.0083 10.4621 14.1653 10.4468 14.2993C10.4353 14.4295 10.4123 14.5521 10.397 14.575C10.3779 14.5942 10.3549 14.6976 10.3396 14.8048C10.3243 14.9082 10.2975 15.0116 10.2821 15.0346C10.2668 15.0537 10.2438 15.1379 10.2285 15.2145C10.2132 15.2911 10.1787 15.4022 10.1481 15.4596C10.1213 15.5171 10.0868 15.6472 10.0715 15.7468C10.0562 15.8502 10.0294 15.9421 10.0141 15.9536C9.99494 15.9651 9.96813 16.0685 9.95664 16.1834C9.94133 16.3021 9.91452 16.4055 9.8992 16.4131C9.88006 16.4246 9.85325 16.5318 9.83793 16.6544C9.82645 16.7731 9.79964 16.888 9.78432 16.9109C9.76901 16.9301 9.7422 17.0258 9.72688 17.1215C9.71157 17.2173 9.6771 17.3283 9.6503 17.3743C9.62349 17.4164 9.58903 17.5351 9.57371 17.6308C9.55839 17.7304 9.53159 17.8223 9.51244 17.83C9.49712 17.8415 9.47032 17.9563 9.455 18.0827C9.43968 18.2052 9.41671 18.3201 9.39756 18.3278C9.38224 18.3393 9.35544 18.4465 9.34012 18.569C9.32863 18.6877 9.30183 18.8026 9.28651 18.8256C9.27119 18.8447 9.24439 18.9328 9.2329 19.0171C9.21758 19.1013 9.17929 19.2085 9.15248 19.2507C9.12185 19.2966 9.08738 19.423 9.07207 19.5302C9.05675 19.6374 9.03377 19.737 9.01463 19.7446C8.99931 19.7561 8.9725 19.8633 8.95719 19.9859C8.9457 20.1046 8.91889 20.2195 8.90358 20.2424C8.88443 20.2616 8.86145 20.365 8.84614 20.4722C8.83082 20.5756 8.80401 20.679 8.7887 20.702C8.77338 20.7211 8.74657 20.8092 8.73509 20.8934C8.71977 20.9777 8.68147 21.0849 8.65467 21.127C8.62403 21.173 8.58957 21.2993 8.57425 21.4066C8.55894 21.5138 8.53213 21.6133 8.51681 21.6248C8.49767 21.6363 8.48235 21.6823 8.48235 21.7282C8.48235 21.778 8.44789 21.8814 8.40576 21.9656C8.36364 22.0461 8.31769 22.2031 8.3062 22.3065C8.29088 22.4137 8.26791 22.5171 8.25259 22.54C8.23344 22.5592 8.21047 22.6626 8.19515 22.7698C8.17983 22.8732 8.15303 22.9766 8.13771 22.9996C8.12239 23.0187 8.09559 23.1068 8.0841 23.191C8.06878 23.2753 8.03049 23.3825 8.00368 23.4246C7.97305 23.4706 7.93858 23.5969 7.92327 23.7042C7.90795 23.8114 7.88497 23.911 7.86583 23.9186C7.85051 23.9301 7.8237 24.0373 7.80839 24.1599C7.7969 24.2786 7.77009 24.3934 7.75478 24.4164C7.73563 24.4356 7.71265 24.539 7.69351 24.6462C7.67819 24.7496 7.64373 24.8721 7.61692 24.9142C7.59394 24.9564 7.55948 25.0636 7.54416 25.1517C7.52884 25.2436 7.50204 25.324 7.48672 25.3355C7.46758 25.347 7.44077 25.4542 7.42545 25.5767C7.41397 25.6954 7.38716 25.8103 7.37184 25.8333C7.3527 25.8524 7.32972 25.9558 7.3144 26.063C7.29909 26.1664 7.27228 26.2698 7.25696 26.2928C7.23782 26.3119 7.21484 26.4153 7.19952 26.5226C7.18421 26.6259 7.14974 26.7485 7.12294 26.7944C7.09613 26.8366 7.06167 26.9591 7.04635 27.0625C7.03103 27.1659 7.00423 27.2654 6.98891 27.2884C6.96976 27.3076 6.94679 27.411 6.93147 27.5182C6.91615 27.6216 6.88935 27.725 6.87403 27.7479C6.85488 27.7671 6.83191 27.8667 6.81659 27.97C6.80127 28.0696 6.77447 28.1577 6.75915 28.1692C6.74 28.1807 6.71703 28.2802 6.70171 28.3913C6.68639 28.4985 6.65193 28.6287 6.62129 28.6746C6.59066 28.7206 6.56768 28.7895 6.56768 28.8278C6.56768 28.8661 6.54088 28.9465 6.51024 29.0078C6.47578 29.0691 6.44131 29.2261 6.426 29.3524C6.41451 29.4826 6.39153 29.6013 6.37622 29.6243C6.35707 29.6435 6.33409 29.743 6.31878 29.8464C6.30346 29.946 6.27665 30.0341 6.26134 30.0455C6.24219 30.057 6.21921 30.1566 6.2039 30.2676C6.18858 30.3749 6.15411 30.5012 6.12731 30.5472C6.1005 30.5893 6.06604 30.7118 6.05072 30.8152C6.03541 30.9186 6.0086 31.0182 5.99328 31.0412C5.97797 31.0603 5.95116 31.1484 5.93967 31.2326C5.92435 31.3169 5.88606 31.4241 5.85926 31.4662C5.82862 31.5122 5.79416 31.6424 5.77884 31.7534C5.76352 31.8683 5.74055 31.9755 5.72523 31.9985C5.70991 32.0177 5.68311 32.1057 5.67162 32.19C5.6563 32.2742 5.61801 32.3776 5.5912 32.4236C5.5644 32.4657 5.52993 32.5844 5.51462 32.6801C5.4993 32.7797 5.47249 32.8716 5.45335 32.8792C5.43803 32.8907 5.41122 33.0056 5.39591 33.132C5.38059 33.2545 5.35761 33.3694 5.33847 33.3771C5.32315 33.3886 5.29634 33.4919 5.28486 33.6068C5.26954 33.7255 5.24273 33.8289 5.22359 33.8366C5.20827 33.8481 5.18146 33.94 5.16615 34.0395C5.15083 34.1391 5.11636 34.254 5.08956 34.2999C5.05892 34.3421 5.02446 34.4646 5.01297 34.568C4.99766 34.6714 4.97468 34.7709 4.95936 34.7939C4.94022 34.8131 4.91724 34.9165 4.90192 35.0237C4.88661 35.1271 4.85597 35.2343 4.83682 35.2573C4.81768 35.2841 4.79087 35.3951 4.77938 35.5062C4.7679 35.6172 4.73343 35.7513 4.7028 35.8049C4.67599 35.8623 4.65302 35.9389 4.65302 35.981C4.65302 36.0231 4.62621 36.0959 4.59558 36.1418C4.56494 36.1878 4.52665 36.3065 4.51516 36.4099C4.49984 36.5095 4.47304 36.6128 4.45389 36.6358C4.43474 36.6626 4.41177 36.7737 4.39645 36.8847C4.38496 36.9996 4.35816 37.1107 4.34284 37.1336C4.32369 37.1566 4.29689 37.26 4.2854 37.3634C4.27391 37.4668 4.24711 37.5855 4.22796 37.6276C4.15137 37.8038 4.00203 38.3131 4.00203 38.4088C4.00203 38.4662 3.98288 38.5313 3.96374 38.5505C3.94076 38.5735 3.91395 38.6845 3.89864 38.7994C3.88715 38.9143 3.86034 39.0253 3.84503 39.0483C3.82588 39.0713 3.79907 39.1747 3.78759 39.2781C3.77227 39.3815 3.74929 39.481 3.73398 39.504C3.71866 39.5231 3.68419 39.6265 3.66122 39.7338C3.63441 39.8371 3.59612 39.9444 3.57697 39.9673C3.55783 39.9941 3.53102 40.1052 3.5157 40.2163C3.50422 40.3311 3.47741 40.4422 3.46209 40.4652C3.44295 40.4881 3.41614 40.5915 3.40465 40.6949C3.38934 40.7983 3.36636 40.8979 3.35104 40.9208C3.3319 40.94 3.30892 41.0281 3.2936 41.1123C3.27828 41.1966 3.23999 41.3038 3.21319 41.3497C3.18255 41.3995 3.14809 41.5182 3.13277 41.6178C3.12128 41.7212 3.09831 41.8169 3.08299 41.8399C3.06384 41.859 3.04087 41.9471 3.02555 42.0314C3.01023 42.1156 2.97194 42.2228 2.94513 42.2688C2.9145 42.3186 2.88003 42.4373 2.86472 42.5368C2.85323 42.6402 2.82642 42.7398 2.80728 42.7628C2.78813 42.7896 2.76515 42.9006 2.74984 43.0117C2.73835 43.1265 2.71537 43.2338 2.70006 43.2567C2.68474 43.2759 2.65027 43.3908 2.62347 43.5056C2.59666 43.6205 2.5622 43.7354 2.54305 43.7546C2.52774 43.7775 2.50093 43.8733 2.48561 43.9652C2.4703 44.0609 2.44349 44.1566 2.42434 44.1796C2.4052 44.2064 2.38222 44.3175 2.3669 44.4285C2.35542 44.5434 2.33244 44.6506 2.31712 44.6736C2.29798 44.6927 2.26734 44.7961 2.24436 44.9034C2.18692 45.1829 2.08353 45.585 2.04907 45.6501C2.03375 45.6845 2.00695 45.7688 1.99163 45.8415C1.97631 45.9143 1.94951 45.9947 1.93036 46.0139C1.91504 46.0368 1.88058 46.1479 1.86143 46.2628C1.80399 46.5729 1.74655 46.8257 1.66231 47.0976C1.62401 47.2278 1.58955 47.3771 1.58955 47.4307C1.58955 47.4805 1.57423 47.5303 1.55508 47.5418C1.53594 47.5533 1.50913 47.6298 1.49382 47.7064C1.4785 47.7868 1.45169 47.8711 1.43638 47.8902C1.41723 47.9132 1.38276 48.0243 1.36362 48.1391C1.29852 48.5106 1.25257 48.6867 1.03812 49.4411C0.934733 49.8087 0.900269 50.1342 0.900269 50.7852C0.900269 51.6123 0.961538 51.9378 1.17598 52.2289C1.48999 52.6501 2.06822 53.1173 2.37839 53.2015C2.66176 53.2781 52.6767 53.2743 52.9715 53.1977C53.186 53.1441 53.3889 52.9794 53.6187 52.6769C53.8063 52.4318 53.837 52.2136 53.8102 51.3405C53.7872 50.632 53.7604 50.3908 53.6685 50.1878C53.634 50.1112 53.5804 49.8662 53.4387 49.1156C53.3928 48.882 53.3315 48.591 53.3047 48.4646C53.2741 48.3383 53.2396 48.1736 53.2243 48.1008C53.209 48.0281 53.186 47.9438 53.1668 47.9094C53.1515 47.8787 53.1017 47.6949 53.0596 47.5073C53.0175 47.3158 52.9639 47.0746 52.9409 46.9712C52.9179 46.864 52.8835 46.6648 52.8643 46.5232C52.8452 46.3815 52.8145 46.236 52.7954 46.1977C52.7763 46.1594 52.7494 46.0522 52.738 45.9564C52.7265 45.8607 52.6882 45.7305 52.6575 45.6692C52.6231 45.6041 52.5963 45.5007 52.5963 45.4395C52.5924 45.3744 52.5695 45.2557 52.5388 45.1714C52.5082 45.0872 52.4814 44.957 52.4814 44.8804C52.4814 44.8038 52.4584 44.6544 52.4278 44.5549C52.3665 44.3404 52.3052 44.0494 52.2516 43.7239C52.2287 43.6014 52.1865 43.4635 52.1559 43.4176C52.1253 43.3716 52.0985 43.2721 52.0985 43.1916C52.0985 43.1151 52.0755 42.9734 52.0448 42.8853C52.0142 42.7934 51.9797 42.6364 51.9683 42.533C51.9568 42.4296 51.93 42.3262 51.9108 42.3032C51.8955 42.2803 51.8687 42.1462 51.861 42.0084C51.8496 41.8705 51.8151 41.7135 51.7806 41.6637C51.75 41.614 51.7155 41.4876 51.7002 41.3842C51.6887 41.2808 51.6619 41.1774 51.6428 41.1544C51.6275 41.1315 51.6006 41.0204 51.5892 40.9055C51.5738 40.7945 51.5509 40.6834 51.5317 40.6566C51.5126 40.6336 51.4858 40.5073 51.4743 40.3809C51.4628 40.2507 51.4283 40.1052 51.3977 40.0554C51.3671 40.0056 51.3326 39.864 51.3211 39.7414C51.3096 39.6189 51.2828 39.4963 51.2637 39.4734C51.2445 39.4466 51.2177 39.3355 51.2062 39.2245C51.1947 39.1134 51.1564 38.987 51.122 38.9411C51.0913 38.8913 51.0645 38.7917 51.0645 38.7113C51.0645 38.6347 51.0416 38.4931 51.0109 38.405C50.9803 38.3131 50.9497 38.1484 50.9343 38.0335C50.9229 37.9225 50.8999 37.8114 50.8807 37.7846C50.8616 37.7616 50.8348 37.6315 50.8233 37.4974C50.8118 37.3634 50.785 37.237 50.762 37.2141C50.739 37.1911 50.7199 37.1107 50.7199 37.0341C50.7161 36.9613 50.6893 36.8311 50.6586 36.7469C50.6242 36.6626 50.582 36.4903 50.5629 36.3678C50.5438 36.2414 50.5131 36.1227 50.494 36.0997C50.4787 36.0767 50.4518 35.9504 50.4404 35.8163C50.4289 35.6861 50.4059 35.556 50.3829 35.5291C50.3638 35.5023 50.337 35.3683 50.3255 35.2228C50.3178 35.0811 50.291 34.9433 50.2719 34.9165C50.2489 34.8935 50.2221 34.7824 50.2106 34.6714C50.1991 34.5603 50.1646 34.434 50.134 34.3842C50.1034 34.3344 50.0689 34.2119 50.0536 34.1085C50.0421 34.0051 50.0153 33.9017 49.9962 33.8787C49.9808 33.8557 49.954 33.7217 49.9425 33.5762C49.9349 33.4345 49.9081 33.2966 49.8851 33.2698C49.866 33.2469 49.8392 33.109 49.8277 32.9635C49.82 32.8218 49.7932 32.684 49.7741 32.6571C49.7511 32.6342 49.7243 32.527 49.709 32.4236C49.6975 32.3202 49.663 32.1976 49.6362 32.1555C49.6056 32.1096 49.5711 31.9832 49.5596 31.8683C49.5443 31.7573 49.5213 31.6462 49.5022 31.6194C49.483 31.5964 49.4562 31.4509 49.4486 31.3016C49.4371 31.1484 49.4103 31.0029 49.3911 30.9761C49.3681 30.9493 49.3413 30.8191 49.3299 30.685C49.3184 30.5548 49.2954 30.4246 49.2724 30.3978C49.2533 30.371 49.2265 30.2676 49.2111 30.1643C49.1997 30.0609 49.1652 29.9383 49.1384 29.8962C49.1077 29.8502 49.0733 29.7239 49.0618 29.609C49.0465 29.4979 49.0197 29.3831 48.9967 29.3563C48.9737 29.3295 48.9507 29.1954 48.9431 29.0614C48.9393 28.9274 48.9086 28.778 48.8742 28.7244C48.8397 28.6708 48.8052 28.5368 48.7937 28.4219C48.7784 28.3109 48.7555 28.1998 48.7363 28.173C48.7172 28.15 48.6904 28.0428 48.6789 27.9318C48.6674 27.8207 48.6329 27.6943 48.6023 27.6446C48.5716 27.5948 48.5372 27.4569 48.5257 27.3344C48.5142 27.2118 48.4874 27.0893 48.4683 27.0663C48.4491 27.0395 48.4223 26.9208 48.4108 26.7983C48.3993 26.6757 48.3725 26.5532 48.3534 26.5302C48.3342 26.5034 48.3074 26.377 48.2959 26.243C48.2844 26.1128 48.2615 25.9826 48.2385 25.9558C48.2193 25.929 48.1925 25.818 48.1811 25.7031C48.1657 25.592 48.1313 25.4618 48.1045 25.4159C48.0738 25.3738 48.0432 25.2282 48.0279 25.0942C48.0164 24.964 47.9934 24.8338 47.9704 24.807C47.9513 24.7802 47.9245 24.6615 47.913 24.539C47.9015 24.4164 47.8747 24.2939 47.8556 24.2709C47.8364 24.2441 47.8096 24.1101 47.7981 23.9646C47.7905 23.8229 47.7637 23.685 47.7445 23.6582C47.7215 23.6352 47.6947 23.5242 47.6832 23.4131C47.6717 23.3021 47.6373 23.1757 47.6067 23.1259C47.576 23.0762 47.5416 22.946 47.5301 22.8311C47.5147 22.72 47.4918 22.609 47.4726 22.5822C47.4535 22.5592 47.4267 22.4213 47.4152 22.2797C47.4075 22.1341 47.3769 21.9963 47.3539 21.9733C47.3309 21.9503 47.3118 21.8661 47.3118 21.7857C47.3118 21.7091 47.2888 21.5674 47.2582 21.4793C47.2275 21.3874 47.1931 21.2457 47.1778 21.1615C47.1624 21.0772 47.128 20.9547 47.1012 20.8934C47.0744 20.8283 47.0399 20.6867 47.0284 20.5718C47.0169 20.4607 46.994 20.3497 46.9748 20.3229C46.9557 20.2999 46.9289 20.1735 46.9174 20.0395C46.9059 19.9093 46.8829 19.7791 46.8599 19.7523C46.8408 19.7255 46.814 19.6029 46.8025 19.4766C46.7948 19.3502 46.7565 19.1932 46.7259 19.1319C46.657 18.9979 46.5919 18.7069 46.5459 18.3163C46.5268 18.1631 46.4961 18.0138 46.477 17.9908C46.4579 17.964 46.431 17.8568 46.4196 17.7457C46.4081 17.6347 46.3736 17.5083 46.343 17.4585C46.3123 17.4087 46.2779 17.2862 46.2626 17.1828C46.2511 17.0794 46.2243 16.976 46.2051 16.9531C46.1898 16.9301 46.163 16.8114 46.1515 16.6927C46.14 16.5739 46.1056 16.4169 46.0749 16.348C46.0443 16.2791 46.006 16.1374 45.9945 16.034C45.983 15.9306 45.9562 15.8272 45.9371 15.8043C45.9217 15.7813 45.8949 15.6702 45.8835 15.5553C45.8681 15.4443 45.8452 15.3332 45.826 15.3064C45.8069 15.2835 45.7801 15.1494 45.7686 15.0039C45.7609 14.8622 45.7341 14.7244 45.7111 14.6976C45.692 14.6746 45.6652 14.5559 45.6537 14.4333C45.6422 14.3146 45.6077 14.1768 45.5771 14.127C45.5465 14.0811 45.512 13.9394 45.5005 13.8168C45.489 13.6943 45.4622 13.5717 45.4431 13.5488C45.4239 13.522 45.3971 13.4109 45.3856 13.296C45.3703 13.185 45.3473 13.0739 45.3282 13.0471C45.3091 13.0242 45.2822 12.8786 45.2746 12.7293C45.2631 12.5761 45.2363 12.4306 45.2171 12.4038C45.1942 12.377 45.1674 12.2659 45.1559 12.1549C45.1444 12.0438 45.1061 11.906 45.0755 11.8409C45.041 11.7796 45.0142 11.6686 45.0142 11.5958C45.0142 11.5231 44.9912 11.3775 44.9606 11.278C44.8725 10.9831 44.8189 10.7266 44.7844 10.4508C44.7653 10.3053 44.7385 10.1713 44.727 10.1522C44.6849 10.0832 44.5508 9.53563 44.5164 9.2829C44.4972 9.14887 44.4628 9.00718 44.4398 8.96889C44.4206 8.92677 44.4015 8.83103 44.4015 8.75828C44.4015 8.68552 44.3785 8.54766 44.3479 8.45959C44.3173 8.36769 44.2828 8.22217 44.2713 8.1341C44.2598 8.04219 44.2253 7.91582 44.1947 7.8469C44.1334 7.70521 44.0722 7.41801 44.0186 7.06188C43.9994 6.92786 43.9611 6.78234 43.9343 6.73639C43.8731 6.62151 43.7926 6.28836 43.7543 5.97818C43.739 5.84033 43.7046 5.66801 43.6816 5.59525C43.605 5.34634 43.5169 5.0017 43.4825 4.81789C43.4633 4.71833 43.4327 4.58047 43.4097 4.51155C43.3599 4.35072 43.2948 4.02522 43.2527 3.73036C43.2336 3.59634 43.1991 3.45465 43.1761 3.41636C43.157 3.37424 43.1378 3.28233 43.1378 3.2134C43.134 3.14448 43.1034 2.9913 43.0612 2.87642C43.0191 2.76154 42.9885 2.61986 42.9846 2.56625C42.9846 2.50881 42.9617 2.37861 42.931 2.27905C42.8506 1.9995 42.7932 1.73911 42.7549 1.4634C42.7357 1.32937 42.6936 1.18386 42.6668 1.1379C42.64 1.09195 42.5979 0.988561 42.5711 0.900486C42.506 0.670726 42.0043 0.146107 41.7899 0.0771794C41.652 0.0350567 39.2396 0.0235687 27.2652 0.0197394C19.3691 0.01591 12.775 0.027398 12.618 0.0427154ZM37.2406 3.40104C36.9803 3.77249 36.605 4.23584 36.1608 4.74131C36.0382 4.87916 35.9387 5.00553 35.9387 5.02851C35.9387 5.04765 35.8774 5.13573 35.8046 5.2238C35.7319 5.30805 35.6706 5.39612 35.6706 5.41527C35.6706 5.43442 35.5787 5.55696 35.4677 5.68332C35.3566 5.81352 35.1958 6.01648 35.1154 6.13136C35.035 6.24624 34.8473 6.46834 34.7056 6.62151C34.5639 6.77085 34.4452 6.9202 34.4452 6.947C34.4452 6.97381 34.3342 7.11166 34.1963 7.25718C34.0585 7.40269 33.9474 7.53289 33.9474 7.55204C33.9474 7.56735 33.8938 7.60948 33.8249 7.64011C33.7177 7.69372 32.5612 7.70138 21.9042 7.70138C8.79253 7.70138 9.8992 7.72436 10.1251 7.44482C10.1902 7.3644 10.4315 7.03891 10.6689 6.7249C10.9025 6.40707 11.1744 6.05477 11.2739 5.93989C11.3735 5.82501 11.5114 5.65269 11.5803 5.55696C11.7028 5.38464 11.9747 5.04382 12.4074 4.51538C12.5338 4.3622 12.7138 4.13244 12.8057 4.00608C12.8976 3.87971 13.0125 3.74185 13.0622 3.69973C13.1082 3.65761 13.1809 3.5657 13.2192 3.49294C13.2575 3.42019 13.315 3.35126 13.3456 3.33594C13.3762 3.32062 13.4567 3.28233 13.5179 3.2517C13.6213 3.19426 14.7969 3.19043 25.5152 3.1866L37.3976 3.18277L37.2406 3.40104ZM37.7461 8.226C37.7078 8.29493 37.57 8.85018 37.4551 9.38629C37.4245 9.52414 37.3708 9.77305 37.3325 9.94154C37.2981 10.11 37.2483 10.2977 37.2215 10.3628C37.1947 10.424 37.1602 10.5389 37.1487 10.6117C37.1334 10.6844 37.099 10.8491 37.0683 10.9755C37.0415 11.1018 36.9879 11.3431 36.9534 11.5116C36.9152 11.6801 36.873 11.8485 36.8539 11.8868C36.8347 11.9213 36.7926 12.0515 36.762 12.174C36.7313 12.2928 36.6548 12.58 36.5935 12.8135C36.5322 13.0433 36.4518 13.3726 36.4173 13.5411C36.379 13.7096 36.3293 13.9432 36.2986 14.0619C36.268 14.1768 36.245 14.3261 36.245 14.3951C36.245 14.4602 36.2297 14.5214 36.2106 14.5329C36.1914 14.5444 36.1569 14.6478 36.134 14.755C36.1072 14.8661 36.065 15.0537 36.0382 15.1686C36.0076 15.2835 35.9578 15.5171 35.9195 15.6855C35.8276 16.1144 35.7549 16.4131 35.6744 16.7003C35.6055 16.9416 35.5557 17.1445 35.4217 17.7917C35.3336 18.2091 35.2609 18.5116 35.1766 18.8064C35.1345 18.9443 35.0732 19.1932 35.0349 19.3617C35.0005 19.5302 34.9469 19.7523 34.9162 19.8557C34.8894 19.9591 34.8665 20.0893 34.8665 20.1391C34.8665 20.1888 34.809 20.4416 34.7363 20.6981C34.6673 20.9509 34.5793 21.2993 34.541 21.4678C34.5027 21.6363 34.4452 21.8316 34.4146 21.9044C34.384 21.9771 34.3572 22.1073 34.3533 22.1954C34.3495 22.2797 34.3342 22.3677 34.3227 22.3869C34.3112 22.4099 34.2538 22.6166 34.1963 22.8464C34.1389 23.08 34.07 23.3174 34.0432 23.3825C34.0163 23.4438 33.9819 23.5663 33.9666 23.6506C33.9551 23.7348 33.9206 23.9071 33.89 24.0335C33.8632 24.1599 33.8096 24.4011 33.7751 24.5696C33.7368 24.7381 33.6794 24.987 33.6411 25.1248C33.6028 25.2627 33.5453 25.4925 33.5147 25.6418C33.4802 25.7873 33.4228 26.0401 33.3883 26.1971C33.3539 26.3541 33.2696 26.6987 33.1969 26.9629C33.1279 27.2272 33.0437 27.5718 33.0092 27.7288C32.9709 27.8858 32.9173 28.1117 32.8905 28.2304C32.8599 28.3453 32.8369 28.4793 32.8369 28.5291C32.8369 28.5751 32.7795 28.8163 32.7067 29.0614C32.6378 29.3065 32.5497 29.6396 32.5152 29.7966C32.477 29.9536 32.431 30.1528 32.408 30.237C32.3851 30.3213 32.3544 30.4859 32.3353 30.6008C32.32 30.7157 32.2549 31.0105 32.1898 31.2518C32.1247 31.493 32.0442 31.8109 32.0136 31.9602C31.9791 32.1057 31.9255 32.3393 31.8949 32.4772C31.8643 32.615 31.8145 32.8027 31.7838 32.8984C31.7532 32.9941 31.6919 33.2239 31.6498 33.4154C31.6039 33.603 31.5426 33.8098 31.5158 33.8749C31.489 33.9361 31.4545 34.0587 31.4392 34.1429C31.3933 34.4186 31.2516 35.0352 31.041 35.8661C30.8265 36.7124 30.8074 36.7967 30.8074 36.9001C30.8074 36.9537 30.7882 37.0341 30.7652 37.0762C30.7461 37.1183 30.7001 37.2677 30.6657 37.4094C30.635 37.551 30.5853 37.7617 30.5546 37.8765C30.5278 37.9914 30.4857 38.1714 30.4627 38.2786C30.4359 38.382 30.3938 38.5543 30.3632 38.6577C30.3325 38.7573 30.3096 38.9104 30.3096 38.9947C30.3096 39.0751 30.2866 39.19 30.2559 39.2474C30.2253 39.3049 30.1832 39.4389 30.1602 39.5423C30.1372 39.6495 30.0913 39.8448 30.0568 39.9827C30.0224 40.1205 29.9802 40.3158 29.9573 40.423C29.9381 40.5264 29.896 40.6987 29.8653 40.8021C29.8347 40.9017 29.8117 41.0396 29.8117 41.1008C29.8117 41.1621 29.7849 41.2617 29.7543 41.3191C29.7237 41.3804 29.6815 41.5221 29.6624 41.6331C29.6126 41.9126 29.5475 42.196 29.4977 42.3492C29.4786 42.4219 29.4441 42.5675 29.425 42.6747C29.3675 43.0232 29.3063 43.2912 29.2527 43.4291C29.222 43.5018 29.1837 43.6397 29.1608 43.7354C29.0918 44.0724 29.0382 44.2945 28.9846 44.4783C28.954 44.5779 28.931 44.6966 28.931 44.7387C28.931 44.777 28.9042 44.8612 28.8736 44.9187C28.8429 44.9799 28.8008 45.1216 28.7816 45.2327C28.7204 45.562 28.6323 45.922 28.5864 46.0292C28.5634 46.0828 28.5289 46.2168 28.5098 46.3202C28.4523 46.6227 28.3681 46.9789 28.3413 47.021C28.3298 47.044 28.303 47.1588 28.2838 47.2852C28.2609 47.4077 28.2111 47.6452 28.1651 47.8136C28.1192 47.9821 28.0656 48.1966 28.0426 48.2923C28.0234 48.3881 27.989 48.5221 27.966 48.591C27.9469 48.6638 27.9124 48.8093 27.8932 48.9165C27.8396 49.2458 27.7784 49.5292 27.7362 49.6517C27.7171 49.713 27.6788 49.8394 27.6558 49.9274L27.6175 50.0921H4.30838L4.33135 49.9849C4.34667 49.9274 4.38113 49.8126 4.41177 49.7283C4.4424 49.6441 4.53431 49.2994 4.61855 48.9625C4.69897 48.6255 4.79087 48.2961 4.82151 48.2349C4.88278 48.1123 4.99383 47.6949 5.09339 47.201C5.12785 47.0325 5.18146 46.841 5.20827 46.7797C5.27337 46.6304 5.41122 46.167 5.44186 45.9947C5.45335 45.922 5.47632 45.8262 5.49547 45.7841C5.55674 45.6386 5.68694 45.1714 5.72906 44.9417C5.75203 44.8153 5.79416 44.643 5.82479 44.5587C5.8516 44.4745 5.90138 44.3022 5.93201 44.1758C6.05455 43.6856 6.47961 42.0658 6.50258 42.0122C6.51407 41.9816 6.62129 41.568 6.74 41.0932C6.85488 40.6183 6.96593 40.1971 6.98891 40.155C7.00806 40.1129 7.08464 39.818 7.16123 39.504C7.29143 38.9526 7.42162 38.4969 7.48289 38.3743C7.51353 38.3169 7.54799 38.1599 7.6399 37.7042C7.6667 37.5778 7.70882 37.4323 7.73946 37.3787C7.77009 37.3251 7.83519 37.103 7.89263 36.8809C7.94624 36.6588 8.00368 36.4635 8.02283 36.4405C8.03815 36.4214 8.1492 35.9925 8.26791 35.4909C8.38662 34.9892 8.49767 34.5488 8.51681 34.5144C8.55511 34.4416 8.70062 33.8902 8.80401 33.4345C8.83848 33.2775 8.92655 32.9558 8.99931 32.7261C9.06824 32.4925 9.17929 32.0713 9.24822 31.7879C9.31331 31.5045 9.41671 31.1063 9.47798 30.9071C9.53925 30.708 9.60434 30.4821 9.61583 30.4093C9.66944 30.1451 9.8992 29.272 10.0103 28.9159C10.0754 28.7168 10.1596 28.4487 10.2017 28.3223C10.24 28.196 10.3013 27.97 10.3357 27.8245C10.4391 27.3497 10.5425 26.9514 10.6651 26.5647C10.7263 26.3541 10.7799 26.1549 10.7799 26.1166C10.7799 26.0784 10.8412 25.8256 10.9178 25.5576C10.9944 25.2895 11.1399 24.7496 11.2433 24.359C11.3429 23.9684 11.4692 23.505 11.519 23.3251C11.5726 23.1451 11.653 22.8426 11.699 22.6549C11.7794 22.3179 11.8062 22.2222 12.0666 21.2572C12.1394 20.993 12.2198 20.6828 12.2428 20.5679C12.281 20.3612 12.4419 19.8021 12.5836 19.3732C12.6257 19.2507 12.6563 19.1166 12.6563 19.0745C12.6563 19.0285 12.6716 18.9635 12.6908 18.9252C12.7138 18.8907 12.8057 18.5652 12.8976 18.2091C12.9933 17.8529 13.1197 17.3819 13.1848 17.1598C13.246 16.9377 13.3341 16.6122 13.3762 16.4323C13.4184 16.2523 13.5179 15.8923 13.5983 15.6281C13.6749 15.3639 13.7553 15.0728 13.7783 14.9771C13.8472 14.6555 13.9545 14.2304 14.0655 13.8475C14.1306 13.6368 14.2417 13.2156 14.3183 12.9093C14.391 12.6029 14.5059 12.174 14.5672 11.9519C14.6323 11.7298 14.7127 11.435 14.7471 11.2895L14.8122 11.0329H24.4277C31.0678 11.0329 34.0891 11.0176 34.1963 10.9908C34.2806 10.9678 34.4605 10.9333 34.5984 10.9142C35.0656 10.8529 35.5557 10.6002 36.0536 10.1751C36.2259 10.0296 36.3982 9.8573 36.4441 9.7922C36.4901 9.7271 36.6088 9.58541 36.7122 9.47436C36.8118 9.36714 36.896 9.25992 36.896 9.24077C36.896 9.20248 36.9573 9.12206 37.2981 8.69701C37.3747 8.60127 37.5087 8.43279 37.5929 8.32173C37.7423 8.12644 37.8265 8.07283 37.7461 8.226ZM39.3812 44.6391C39.3583 44.6698 39.32 44.6927 39.297 44.6927C39.274 44.6927 38.9638 44.8383 38.6039 45.0144C38.2439 45.1906 37.8533 45.382 37.7385 45.4318C37.6236 45.4854 37.4666 45.5658 37.3938 45.6041C37.256 45.6845 36.3178 46.1402 35.9387 46.3164C35.8238 46.37 35.617 46.4887 35.4791 46.5768C35.3413 46.661 35.0847 46.7989 34.9048 46.8793C34.7248 46.9559 34.5103 47.0631 34.4299 47.1205C34.3495 47.1741 34.2653 47.2201 34.2423 47.2201C34.2193 47.2201 33.8976 47.3694 33.53 47.5494C33.1586 47.7294 32.6416 47.9821 32.3774 48.1085C32.1132 48.2349 31.803 48.3881 31.6843 48.4493L31.4698 48.5565L31.489 48.3574C31.4966 48.2464 31.5311 48.1123 31.5579 48.0587C31.5847 48.0013 31.6192 47.8826 31.6345 47.7907C31.6498 47.6988 31.6766 47.5915 31.6919 47.5571C31.7111 47.5226 31.7417 47.3924 31.7647 47.2699C31.803 47.0325 31.8872 46.6725 31.9523 46.4542C31.9753 46.3815 31.9945 46.2743 31.9945 46.213C31.9945 46.1555 32.0213 46.056 32.0519 45.9985C32.0825 45.9373 32.1247 45.7956 32.1438 45.6845C32.1936 45.4088 32.2587 45.1216 32.3046 44.9723C32.3276 44.9034 32.3582 44.7655 32.3774 44.6659C32.4616 44.2294 32.4999 44.0532 32.5382 43.946C32.5803 43.8273 32.6493 43.5554 32.722 43.2184C32.7488 43.1112 32.791 42.9427 32.8216 42.8393C32.8522 42.7398 32.8752 42.6172 32.8752 42.5713C32.8752 42.5292 32.902 42.4219 32.9326 42.3377C32.9633 42.2535 32.9863 42.1194 32.9901 42.039C32.9901 41.9586 33.0169 41.8437 33.0475 41.7863C33.0782 41.725 33.1203 41.5833 33.1394 41.4723C33.1777 41.277 33.2237 41.0702 33.3424 40.6145C33.3692 40.5073 33.4151 40.3847 33.4419 40.3388C33.4688 40.2928 33.4994 40.1703 33.5147 40.0707C33.5262 39.9712 33.553 39.8563 33.5721 39.8142C33.5951 39.7759 33.6258 39.6227 33.6411 39.4695C33.6755 39.1708 33.7598 38.8147 33.8249 38.6922C33.8479 38.6501 33.8862 38.5199 33.9053 38.4088C33.9857 37.9876 34.0317 37.777 34.07 37.6659C34.0891 37.6008 34.1236 37.4744 34.1465 37.3787C34.1657 37.283 34.2002 37.149 34.2193 37.0839C34.2423 37.0149 34.2729 36.8771 34.2921 36.7775C34.3418 36.5133 34.4069 36.2376 34.4682 36.0231C34.4988 35.9236 34.5218 35.7895 34.5218 35.7244C34.5218 35.6632 34.5486 35.5751 34.5754 35.5291C34.6061 35.4832 34.6482 35.3492 34.6712 35.2343C34.7209 34.9509 34.786 34.679 34.8511 34.4531C34.8818 34.3535 34.9048 34.231 34.9048 34.1851C34.9048 34.1429 34.9316 34.0357 34.9622 33.9515C34.9928 33.8672 35.0158 33.7332 35.0196 33.6528C35.0196 33.5724 35.0464 33.469 35.0732 33.423C35.1039 33.3771 35.146 33.243 35.169 33.1282C35.2188 32.8448 35.2839 32.5729 35.349 32.347C35.3796 32.2474 35.4026 32.1249 35.4026 32.0789C35.4026 32.0368 35.4294 31.9296 35.46 31.8453C35.4906 31.7611 35.5136 31.6347 35.5174 31.5658C35.5174 31.4969 35.5443 31.3896 35.5749 31.3284C35.6055 31.2671 35.6476 31.1178 35.6668 30.9952C35.7395 30.5587 35.8774 30.0187 35.9616 29.8656C35.9923 29.812 36.0267 29.6818 36.0382 29.5784C36.0536 29.4788 36.0804 29.3639 36.0995 29.3256C36.1187 29.2873 36.1493 29.1418 36.1684 29.0001C36.2144 28.6555 36.2795 28.3491 36.3446 28.1883C36.3752 28.1156 36.4173 27.9777 36.4365 27.882C36.5246 27.4684 36.5743 27.2846 36.6203 27.2003C36.6509 27.1506 36.6854 26.9974 36.7045 26.8557C36.7237 26.714 36.7658 26.4958 36.7964 26.3694C36.8309 26.243 36.873 26.0515 36.896 25.9482C36.9228 25.8409 36.9649 25.6724 36.9956 25.5691C37.0262 25.4695 37.0492 25.3355 37.0492 25.2704C37.0492 25.2091 37.076 25.121 37.1066 25.0751C37.1373 25.0253 37.1794 24.8836 37.1985 24.7572C37.2215 24.6347 37.2636 24.4279 37.2943 24.3015C37.3287 24.1752 37.3708 23.9837 37.3938 23.8803C37.4206 23.7731 37.4627 23.6046 37.4934 23.5012C37.524 23.4016 37.547 23.2676 37.547 23.2025C37.547 23.1413 37.5738 23.0532 37.6044 23.0034C37.6389 22.9536 37.681 22.8043 37.7002 22.6702C37.7346 22.4022 37.7997 22.1112 37.8572 21.9197C37.8801 21.8508 37.9108 21.7129 37.9299 21.6133C37.9874 21.307 38.0448 21.0581 38.1061 20.8666C38.1405 20.7671 38.1827 20.5947 38.198 20.4837C38.2286 20.2961 38.2707 20.1199 38.3971 19.6298C38.4239 19.5225 38.4699 19.4 38.4928 19.3579C38.5196 19.3119 38.5579 19.1817 38.5771 19.0707C38.6613 18.6188 38.7073 18.4388 38.7571 18.3393C38.7877 18.2818 38.8298 18.1248 38.849 17.9946C38.8949 17.6845 38.9562 17.3819 39.0251 17.1445C39.0557 17.045 39.0787 16.9262 39.0787 16.8841C39.0787 16.8458 39.1055 16.7731 39.1362 16.7271C39.1668 16.6773 39.2089 16.5357 39.2281 16.4093C39.2472 16.2867 39.2817 16.1068 39.3047 16.011C39.3276 15.9153 39.3583 15.7698 39.3736 15.6855C39.3927 15.6013 39.408 22.069 39.4157 30.0609C39.4195 40.7677 39.4119 44.6008 39.3812 44.6391ZM42.8583 17.1905C42.8851 17.3092 42.9234 17.5121 42.9425 17.6385C42.9617 17.7649 42.9923 17.9372 43.0153 18.0214C43.0383 18.1057 43.0842 18.3125 43.1187 18.481C43.1531 18.6494 43.2144 18.8984 43.2527 19.0362C43.3982 19.557 43.4442 19.7676 43.4442 19.9016C43.4442 20.0433 43.4748 20.185 43.6778 20.9509C43.7429 21.1921 43.8003 21.441 43.8118 21.5061C43.8233 21.5674 43.8539 21.7321 43.8845 21.8699C43.9113 22.0078 43.965 22.2567 43.9994 22.4252C44.0339 22.5937 44.0875 22.8272 44.1181 22.9421C44.2215 23.3289 44.2866 23.6084 44.3249 23.8459C44.3441 23.976 44.3824 24.1331 44.4053 24.1905C44.4283 24.2518 44.4475 24.3628 44.4436 24.4394C44.4398 24.516 44.4781 24.7075 44.5279 24.8606C44.5776 25.0176 44.6427 25.2397 44.6657 25.3546C44.6925 25.4695 44.7385 25.661 44.7691 25.7758C44.8572 26.1052 44.9721 26.6106 45.0333 26.917C45.1406 27.4416 45.2133 27.7862 45.2669 28.016C45.4163 28.6287 45.4469 28.7589 45.4737 28.9542C45.489 29.0691 45.5197 29.2337 45.5426 29.318C45.5656 29.4022 45.6116 29.6013 45.6499 29.7583C45.6843 29.9153 45.7418 30.1566 45.7801 30.2944C45.8605 30.5931 45.9294 30.9263 45.9715 31.2135C45.9868 31.3284 46.0175 31.493 46.0405 31.5773C46.0634 31.6615 46.1094 31.8606 46.1477 32.0177C46.1821 32.1747 46.2396 32.4159 46.2779 32.5538C46.3966 32.9865 46.4693 33.3349 46.4693 33.446C46.4693 33.5532 46.5306 33.8251 46.6608 34.3153C46.6991 34.4531 46.7565 34.6944 46.791 34.8514C46.8255 35.0084 46.8829 35.2419 46.9135 35.3683C46.9442 35.4947 46.971 35.644 46.9672 35.7015C46.9672 35.7589 46.9978 35.9083 47.0399 36.027C47.0782 36.1495 47.1395 36.3793 47.1778 36.5363C47.2122 36.6933 47.2735 36.9345 47.3118 37.0724C47.419 37.4706 47.5033 37.8497 47.5033 37.9416C47.5033 38.0182 47.6603 38.742 47.7943 39.2742C47.8249 39.4006 47.8862 39.638 47.9245 39.8027C47.9666 39.9673 48.0011 40.1435 48.0011 40.1971C48.0011 40.2507 48.0279 40.4001 48.0585 40.5303C48.0891 40.6605 48.1581 40.9668 48.2117 41.208C48.2653 41.4493 48.3227 41.6905 48.3419 41.7442C48.361 41.7978 48.4032 41.9854 48.4376 42.1654C48.5755 42.87 48.6253 43.0921 48.7899 43.7929C48.8857 44.1911 48.9814 44.6047 48.9967 44.7119C49.0695 45.1178 49.1958 45.6692 49.2303 45.7037C49.2494 45.7267 49.2648 45.7956 49.2648 45.8569C49.2648 45.922 49.3184 46.1747 49.3835 46.4159C49.4486 46.6572 49.5022 46.9176 49.4983 46.9903C49.4983 47.1244 49.5481 47.3656 49.6056 47.5073C49.64 47.5877 49.8353 48.4455 49.82 48.4455C49.8162 48.4455 49.7166 48.3919 49.5979 48.3306C49.4792 48.2655 49.3605 48.2157 49.3375 48.2157C49.3184 48.2157 49.2265 48.1659 49.1384 48.1085C49.0503 48.0472 48.8244 47.9209 48.6329 47.8251C47.9666 47.4882 47.2965 47.1397 47.2007 47.0708C47.0705 46.9827 46.7833 46.8372 46.7374 46.8372C46.7182 46.8372 46.5344 46.7299 46.3277 46.5959C46.1209 46.4619 45.8681 46.3125 45.7609 46.2628C45.6575 46.2092 45.4278 46.0866 45.2554 45.9871C45.0831 45.8837 44.9261 45.8032 44.907 45.8032C44.8648 45.8032 44.4972 45.6118 44.2062 45.4356C44.0875 45.3629 43.9688 45.3054 43.942 45.3054C43.919 45.3054 43.8271 45.2557 43.739 45.1982C43.6509 45.1369 43.3944 44.9953 43.1685 44.8842L42.7549 44.6774V30.7999C42.7549 23.1642 42.7664 16.9301 42.7817 16.9454C42.797 16.9607 42.8315 17.0718 42.8583 17.1905ZM41.3074 47.672C41.4606 47.7524 41.6559 47.8634 41.7401 47.917C41.8244 47.9707 41.9354 48.0281 41.9852 48.0434C42.035 48.0587 42.2494 48.1813 42.4562 48.3153C42.663 48.4493 42.843 48.5604 42.8583 48.5604C42.9081 48.5604 43.3906 48.8054 43.5859 48.9318C43.6969 49.0007 43.7965 49.0582 43.8118 49.0582C43.8577 49.0582 44.3326 49.2918 44.4398 49.3684C44.4934 49.4028 44.7193 49.5292 44.9376 49.6441C45.1597 49.7551 45.4354 49.9006 45.5503 49.9619L45.7571 50.073L43.2987 50.0844C41.9469 50.0883 39.7374 50.0883 38.3894 50.0844L35.9387 50.073L36.1799 49.9504C36.4863 49.7972 37.7844 49.1654 38.0065 49.0658C38.1022 49.0199 38.2401 48.951 38.3129 48.9088C38.3856 48.8667 38.6115 48.7518 38.8107 48.6561C39.0098 48.5604 39.2893 48.4149 39.4349 48.3383C39.6646 48.2119 40.9972 47.5303 41.0202 47.5265C41.0279 47.5265 41.1542 47.5915 41.3074 47.672Z" fill="black"/>
</svg>
