<svg width="68" height="54" viewBox="0 0 68 54" fill="none" xmlns="http://www.w3.org/2000/svg">
<path d="M15.2525 0.0426574C15.115 0.0579374 14.7368 0.134337 14.4121 0.214557C13.8964 0.336796 13.7856 0.378816 13.5526 0.531615C13.0178 0.879233 12.3264 1.40257 12.0017 1.70053C11.593 2.08253 11.1498 2.48362 10.9779 2.62878C10.9092 2.68608 10.7182 2.86562 10.5577 3.02224C10.3973 3.17886 10.1299 3.43098 9.96182 3.57614C9.79375 3.72512 9.46905 4.02308 9.23603 4.24464C9.00301 4.46619 8.67831 4.75651 8.51023 4.89403C8.34597 5.03155 8.06711 5.27985 7.89521 5.44793C7.72332 5.61601 7.45974 5.86431 7.30694 6.00183C7.15414 6.13935 6.84854 6.42584 6.62316 6.63594C6.4016 6.84986 6.1342 7.09434 6.02724 7.17456C5.92411 7.2586 5.80187 7.36556 5.75985 7.41522C5.71783 7.46488 5.59941 7.57184 5.49245 7.65588C5.38931 7.7361 5.12191 7.98058 4.90035 8.1945C4.67879 8.40459 4.39229 8.66435 4.27005 8.77131C4.14399 8.87445 3.8766 9.11893 3.67796 9.30611C3.47932 9.49711 3.14316 9.80653 2.93306 9.99371C1.95515 10.8685 1.71449 11.113 1.43945 11.495C1.28283 11.7127 1.08801 12.0107 1.01161 12.1635C0.931391 12.3163 0.847351 12.4729 0.820611 12.5149C0.797691 12.5569 0.706012 12.9007 0.614332 13.2789L0.450073 13.9665V20.4223L0.614332 21.0907C0.805331 21.8815 0.931391 22.1451 1.43181 22.8288C1.61517 23.081 1.78707 23.314 1.81381 23.3445C1.87111 23.4095 2.33714 23.7877 2.52432 23.9137L2.64656 23.9978V35.9428C2.64656 44.3315 2.65802 47.9528 2.68858 48.1133C2.807 48.7818 3.04384 49.7139 3.1699 50.008C3.37236 50.4817 3.84604 51.1349 4.32735 51.6047C4.54509 51.8148 5.19067 52.3038 5.45425 52.4566C5.53829 52.5024 5.66817 52.5903 5.74075 52.6476C5.84389 52.724 6.0387 52.7889 6.56204 52.915L7.24964 53.0831H11.4898L12.1774 52.915C12.8612 52.7469 12.865 52.7469 13.2088 52.5063C13.396 52.3726 13.7054 52.1548 13.8964 52.0249C14.2593 51.769 14.3166 51.7155 14.626 51.3564C14.817 51.1387 15.4817 50.2181 15.4817 50.1761C15.4817 50.1646 15.5046 50.0997 15.5352 50.0347C15.6345 49.8094 15.7147 49.5343 15.8866 48.8467L16.0547 48.1668V44.6753C16.0547 42.7539 16.0623 41.1838 16.0662 41.1838C16.0738 41.1838 16.3909 41.2526 16.7652 41.3366C17.1396 41.4207 17.5025 41.4894 17.5636 41.4894C17.6858 41.4894 17.9227 41.4436 19.061 41.1838C19.5347 41.0769 19.8212 40.9928 19.9587 40.9164C20.0695 40.8553 20.1803 40.8018 20.207 40.8018C20.2758 40.8018 20.9328 40.3167 21.246 40.034C21.3988 39.9003 21.6128 39.6788 21.7235 39.5413C22.0215 39.1707 22.5105 38.4831 22.5105 38.4373C22.5105 38.4182 22.5448 38.3418 22.583 38.273C22.6251 38.2043 22.7435 37.7955 22.8504 37.3639L23.0453 36.5846V25.0635H44.8955L44.8994 36.5808L45.0713 37.2684C45.1629 37.6465 45.2546 38.0056 45.2737 38.0706C45.3921 38.506 46.011 39.4076 46.5381 39.9118C46.8819 40.2365 47.539 40.7445 47.6765 40.7904C47.73 40.8057 47.9057 40.8821 48.1425 40.9928C48.1769 41.0081 48.5092 41.0922 48.8874 41.18C49.2656 41.2679 49.7164 41.3748 49.8883 41.4169C50.3199 41.5162 50.4192 41.5124 51.1832 41.3366C51.5538 41.2526 51.8632 41.1838 51.8708 41.1838C51.8785 41.1838 51.8861 42.7539 51.8861 44.6753V48.1668L52.0389 48.8085C52.249 49.6948 52.291 49.8285 52.4706 50.1799C52.6272 50.4893 53.0168 51.0585 53.2384 51.2953C53.5898 51.6773 53.7044 51.7805 54.1246 52.0708C54.3729 52.2465 54.69 52.4719 54.8313 52.5712C55.0567 52.7316 55.1331 52.7622 55.6717 52.8921C55.9926 52.9685 56.4395 53.0487 56.6611 53.0716C56.8903 53.0907 57.8453 53.1022 58.8767 53.0945L60.6912 53.0793L61.3597 52.915C61.9097 52.7775 62.0587 52.7278 62.2039 52.6209C62.3032 52.5483 62.3987 52.491 62.4216 52.491C62.4827 52.491 63.411 51.8148 63.5676 51.6582C63.644 51.578 63.7701 51.4367 63.8426 51.345C63.9152 51.2495 63.9878 51.1693 64.0031 51.1616C64.0413 51.1464 64.5646 50.4167 64.6678 50.2372C64.7098 50.1608 64.7594 50.05 64.7747 49.9889C64.79 49.924 64.8244 49.8208 64.8549 49.7597C64.9046 49.6566 65.1071 48.8085 65.2713 48.0101C65.3248 47.7427 65.3324 46.5777 65.3324 35.8397V23.9634L65.6113 23.7609C65.7603 23.6501 65.9589 23.4897 66.0468 23.4018C66.2301 23.2223 67.0132 22.1412 67.0132 22.0725C67.0132 22.0457 67.0362 21.9923 67.0667 21.9502C67.0935 21.9082 67.2119 21.5109 67.3227 21.0716L67.5289 20.2695L67.5404 17.2708L67.548 14.2721L67.3914 13.6227C67.1775 12.7365 67.0629 12.4041 66.8681 12.0985C66.4402 11.4377 65.9245 10.857 65.1987 10.2229C65.0803 10.1159 64.8588 9.91731 64.706 9.77597C64.557 9.63081 64.3354 9.42453 64.2132 9.31757C63.537 8.71019 62.9411 8.16012 62.9182 8.1181C62.9029 8.09518 62.7654 7.97294 62.6126 7.8507C62.4598 7.72464 62.2574 7.54892 62.1619 7.45342C62.0664 7.35792 61.8028 7.10962 61.5736 6.89952C60.8516 6.23485 60.4734 5.88341 60.1373 5.56635C59.9616 5.39445 59.7209 5.18817 59.6025 5.10031C59.4879 5.01627 59.2396 4.79089 59.0486 4.60371C58.8614 4.41653 58.6016 4.17588 58.4756 4.07274C58.3533 3.96578 58.1165 3.75186 57.9561 3.59524C57.4747 3.12156 57.2264 2.89236 57.1042 2.80068C56.9438 2.68226 56.3975 2.18185 56.0613 1.84569C55.7978 1.57829 54.5639 0.638574 54.3156 0.512515C54.2507 0.481955 54.1705 0.432295 54.1399 0.405556C54.1093 0.378816 53.7732 0.283316 53.395 0.191637L52.7074 0.0235575L34.1041 0.0197376C23.8742 0.0159176 15.39 0.0273775 15.2525 0.0426574ZM52.2834 3.15594C52.3254 3.1865 52.3942 3.21324 52.4362 3.21324C52.482 3.21324 52.5661 3.23998 52.6272 3.27054C52.6845 3.3011 52.7571 3.32784 52.7838 3.32784C52.8831 3.32784 53.3721 3.73276 54.2201 4.51203C54.6862 4.94369 55.1942 5.40591 55.3432 5.54343C55.496 5.68095 55.9926 6.13553 56.451 6.55572C56.9094 6.97592 57.6123 7.6215 58.0172 7.98822C59.2969 9.15713 59.6483 9.48183 60.0991 9.89439C60.3435 10.1159 60.9356 10.6584 61.417 11.1015C61.9021 11.5408 62.5018 12.0947 62.754 12.3239C63.0061 12.5569 63.262 12.7861 63.327 12.8358C63.537 12.9962 63.9878 13.5272 64.1291 13.7755C64.2017 13.9092 64.301 14.1346 64.3507 14.2797C64.4347 14.5395 64.4347 14.5509 64.4347 17.1753C64.4347 19.601 64.4309 19.8302 64.366 20.0594C64.133 20.8921 63.5982 21.4575 62.754 21.7669C62.5706 21.8318 61.5163 21.8356 34.1232 21.8433C14.118 21.8509 5.60323 21.8433 5.41605 21.8127C4.98057 21.7478 4.56037 21.5186 4.19365 21.1519C3.99119 20.9494 3.84986 20.7622 3.77728 20.6133C3.53662 20.1205 3.54808 20.2695 3.5328 17.477C3.52516 15.9949 3.53662 14.7458 3.55572 14.5127C3.5901 14.1575 3.61302 14.0811 3.75818 13.7946C3.84604 13.6189 3.97974 13.4088 4.05613 13.3247C4.17455 13.191 4.88125 12.5378 6.0196 11.5064C6.9555 10.6584 7.97543 9.72631 8.26193 9.45891C8.44147 9.29083 8.75089 9.00815 8.94953 8.83243C9.14817 8.65289 9.51107 8.32437 9.75173 8.10282C9.99238 7.87744 10.4164 7.49162 10.6876 7.24332C10.9627 6.99502 11.3829 6.61302 11.6235 6.39146C11.8642 6.16991 12.4334 5.65039 12.8841 5.24165C13.3349 4.83291 13.8085 4.39744 13.9346 4.27902C14.4885 3.75568 14.9622 3.36986 15.05 3.36604C15.0653 3.36222 15.1494 3.33166 15.2334 3.28964C15.3174 3.24762 15.4206 3.21706 15.4664 3.21324C15.5084 3.21324 15.5772 3.1865 15.6192 3.15594C15.6842 3.10628 17.957 3.10246 33.9513 3.10246C49.9456 3.10246 52.2184 3.10628 52.2834 3.15594ZM12.8115 24.2231C12.8841 24.2652 12.8841 24.437 12.8841 36.0001C12.8841 47.3455 12.8803 47.7466 12.8115 48.0827C12.716 48.5373 12.5403 48.8849 12.2424 49.2058C11.9482 49.5267 11.6579 49.7215 11.3026 49.8437C11.1537 49.8972 11.0161 49.9545 10.9932 49.9736C10.9436 50.0233 7.7386 50.0195 7.7195 49.966C7.71186 49.9469 7.63164 49.9087 7.53996 49.8896C7.21526 49.817 6.88292 49.6184 6.57732 49.3204C6.26408 49.011 6.12656 48.8009 5.97376 48.4074L5.87445 48.1553L5.86299 36.2026C5.85535 26.6297 5.86299 24.2422 5.90119 24.2155C5.97758 24.1696 12.7198 24.1773 12.8115 24.2231ZM19.8709 24.2384C19.9014 24.2766 19.9129 25.8313 19.9014 30.3007C19.89 36.9246 19.9091 36.405 19.6493 36.9475C19.0419 38.231 17.4031 38.655 16.219 37.8375C15.8561 37.5892 15.5161 37.1423 15.3595 36.7145C15.2219 36.3401 15.2143 36.0383 15.2143 30.1059C15.2143 24.5822 15.2181 24.2613 15.2831 24.2269C15.3251 24.2002 16.1387 24.1888 17.5865 24.1849C19.443 24.1849 19.8365 24.1926 19.8709 24.2384ZM52.6654 24.246C52.7189 24.2995 52.7265 24.8802 52.7265 30.083C52.7265 33.9985 52.715 35.9657 52.6845 36.1835C52.6119 36.7641 52.4094 37.1843 52.0198 37.574C51.3972 38.1966 50.4651 38.4182 49.6323 38.1431C49.0937 37.9674 48.5398 37.4861 48.2877 36.978C48.0126 36.4203 48.0279 36.7794 48.0279 30.1899C48.0279 25.6403 48.0394 24.2652 48.0738 24.2308C48.1081 24.1964 48.6697 24.1849 50.3619 24.1849C52.3521 24.1849 52.6119 24.1926 52.6654 24.246ZM62.0434 24.2384C62.074 24.2766 62.0855 27.3517 62.0778 36.2026C62.0664 47.8459 62.0664 48.1209 61.9938 48.3081C61.7302 48.9919 61.4093 49.3853 60.8707 49.6909C60.7408 49.7635 60.5422 49.8476 60.4314 49.8781C60.3244 49.9049 60.229 49.9469 60.2213 49.9698C60.2022 50.0195 56.982 50.0233 56.9476 49.9736C56.9361 49.9545 56.8368 49.9087 56.726 49.8781C56.111 49.6986 55.5571 49.2134 55.2859 48.6213C55.0414 48.0789 55.0567 48.9804 55.0567 36.0345C55.0567 26.9391 55.0682 24.2652 55.1025 24.2308C55.1751 24.1582 61.9823 24.1658 62.0434 24.2384Z" fill="black"/>
</svg>
