<svg width="96" height="73" viewBox="0 0 96 73" fill="none" xmlns="http://www.w3.org/2000/svg">
<path d="M19.058 0.0825866C19.042 0.119292 18.9304 0.166484 18.8135 0.187458C18.5106 0.234651 17.9579 0.49683 17.6231 0.75901C17.4743 0.874369 16.9322 1.35154 16.422 1.81297C15.9118 2.27965 15.3644 2.77255 15.1997 2.91937C14.7108 3.35459 8.74802 8.71878 7.83394 9.54727C7.36627 9.97725 6.69666 10.5803 6.34059 10.8949C5.98984 11.2095 5.41057 11.7234 5.06514 12.0432C4.71439 12.3578 3.91723 13.0815 3.29013 13.6425C1.175 15.5407 0.882705 15.8134 0.680758 16.0703C0.563841 16.2119 0.473496 16.3482 0.473496 16.3692C0.473496 16.3954 0.39378 16.5527 0.298121 16.7205C-0.0154288 17.2554 -0.0101144 17.1924 0.00582883 22.0061C0.0270864 26.7725 0.0164576 26.6047 0.324693 27.1972C0.87739 28.2459 1.9509 29.0167 3.02441 29.1373C3.21573 29.1583 3.42299 29.195 3.48676 29.2212L3.60899 29.2632L3.63556 70.0374L3.78437 70.4254C4.19358 71.4741 4.78879 72.1453 5.70818 72.5962C5.91544 72.6959 6.17053 72.7903 6.27682 72.8112C6.38842 72.8322 6.51065 72.8794 6.55317 72.9213C6.61694 72.9895 7.01552 73 9.1838 73C10.8047 73 11.74 72.979 11.74 72.9476C11.74 72.9214 11.8782 72.8584 12.0483 72.8112C13.1218 72.5071 14.0199 71.6891 14.4397 70.6404C14.732 69.901 14.7161 71.2015 14.7161 49.4091C14.7161 33.8723 14.732 29.3261 14.7799 29.2789C14.8277 29.2317 22.2838 29.216 48.0002 29.216C79.5305 29.216 81.1567 29.2212 81.178 29.3051C81.1939 29.3576 81.2099 38.4605 81.2152 49.5349C81.2258 68.3437 81.2364 69.6965 81.3215 70.0321C81.5181 70.8292 81.7891 71.3273 82.3099 71.8464C82.8148 72.355 83.3356 72.6592 84.0052 72.8374C84.1275 72.8742 84.2284 72.9214 84.2284 72.9476C84.2284 72.979 85.1903 73 86.8006 73C88.9317 73 89.3781 72.9895 89.3993 72.9266C89.4153 72.8899 89.5216 72.8375 89.6332 72.8217C89.7448 72.8007 90.0371 72.6854 90.2868 72.57C90.6642 72.3917 90.8183 72.2764 91.2169 71.8779C91.7005 71.3955 91.9078 71.0651 92.1788 70.352C92.2744 70.0951 92.2797 69.5287 92.2957 49.7132C92.3063 31.6438 92.317 29.3261 92.386 29.2684C92.4339 29.2317 92.6783 29.1688 92.9387 29.1321C93.3533 29.0692 93.6456 28.9853 93.9006 28.8437C93.9432 28.8227 94.0866 28.7493 94.2142 28.6864C94.3471 28.6182 94.6553 28.3665 94.9051 28.1201C95.2718 27.7635 95.4099 27.58 95.5853 27.2234C96.0211 26.353 95.9998 26.6204 95.9998 21.9274V17.7587L95.8776 17.3969C95.6066 16.5684 95.2452 16.0546 94.4215 15.31C93.1885 14.1931 92.402 13.4852 91.8812 13.0133C91.5729 12.7406 91.169 12.3736 90.9777 12.2005C90.7864 12.0275 90.5154 11.781 90.3666 11.6552C90.2231 11.5294 89.9467 11.2777 89.7554 11.1046C89.5641 10.9263 88.9901 10.402 88.48 9.94579C87.9698 9.48435 87.2523 8.83414 86.8856 8.5038C86.5189 8.16821 85.945 7.64909 85.6102 7.35021C85.2754 7.05132 84.7493 6.5794 84.441 6.29625C84.1328 6.01834 83.8192 5.72994 83.7448 5.66177C83.3781 5.33667 82.9583 4.95389 82.1027 4.18308C78.0265 0.496831 78.1807 0.622677 77.7449 0.42342C77.6705 0.391959 77.5482 0.334279 77.4738 0.29233C77.3994 0.255625 77.2347 0.208433 77.1125 0.187458C76.9902 0.166484 76.8574 0.119292 76.8148 0.0825866C76.7086 -0.0275289 19.1005 -0.0275289 19.058 0.0825866Z" fill="black"/>
<path d="M18.4681 32.918C18.3937 32.9914 18.383 33.888 18.383 42.0261C18.3883 51.6324 18.3883 51.6376 18.6381 52.3402C18.9889 53.3208 19.9083 54.2017 20.9446 54.5425C21.6248 54.7733 22.6558 54.7575 23.352 54.5111C24.468 54.1178 25.3502 53.1373 25.685 51.9208C25.7913 51.5327 25.7966 51.3911 25.8072 42.283C25.8232 35.8649 25.8072 33.0071 25.77 32.9389C25.7169 32.8341 25.6425 32.8341 22.1297 32.8341C18.9464 32.8341 18.5425 32.8446 18.4681 32.918Z" fill="black"/>
<path d="M70.2037 32.9075C70.1612 32.9599 70.1453 35.3825 70.1612 42.3302C70.1772 52.7964 70.14 51.8683 70.5757 52.7388C70.7617 53.111 70.8946 53.2841 71.2613 53.6459C71.9043 54.2751 72.574 54.6002 73.4136 54.6894C75.4278 54.9044 77.2241 53.541 77.4791 51.6061C77.5589 50.9874 77.5482 32.9756 77.4685 32.897C77.3675 32.7974 70.2888 32.8079 70.2037 32.9075Z" fill="black"/>
</svg>
